<svg width="37" height="29" viewBox="0 0 37 29" fill="none" xmlns="http://www.w3.org/2000/svg">
<path d="M16.251 17.1999H19.751C19.8731 17.1999 19.9885 17.1492 20.0722 17.0619C20.1555 16.9748 20.201 16.8586 20.201 16.739V10.4782C20.201 10.3586 20.1555 10.2423 20.0722 10.1553C19.9885 10.068 19.8731 10.0173 19.751 10.0173H16.251C16.1288 10.0173 16.0135 10.068 15.9298 10.1553C15.8464 10.2423 15.801 10.3586 15.801 10.4782V16.739C15.801 16.8586 15.8464 16.9748 15.9298 17.0619C16.0135 17.1492 16.1288 17.1999 16.251 17.1999ZM19.301 10.939V16.2781H16.701V10.939H19.301Z" fill="#5B3F91" stroke="#5B3F91" stroke-width="0.4"/>
<path d="M19.4271 16.0162L19.427 16.0162L19.4295 16.0188C19.6507 16.2493 19.9915 16.4115 20.3184 16.5161C20.6488 16.6219 20.9952 16.6782 21.2508 16.6782H25.8758V16.4782L25.8763 16.6782C26.1032 16.6777 26.3257 16.6168 26.5228 16.502C26.7199 16.3872 26.8847 16.2226 27.0025 16.0243C27.1203 15.8261 27.1874 15.6005 27.1981 15.3688C27.206 15.1974 27.183 15.0265 27.1306 14.8646C27.3664 14.6959 27.5433 14.4516 27.6337 14.1686C27.7244 13.8848 27.7225 13.5795 27.631 13.2992C27.782 13.191 27.9097 13.0513 28.0059 12.8888C28.1334 12.6734 28.2006 12.426 28.2008 12.1741V12.1739C28.2008 11.8701 28.1043 11.5819 27.9326 11.3478C28.1056 11.0974 28.2008 10.7953 28.2008 10.4782C28.2008 9.65694 27.5582 8.9739 26.7508 8.9739H23.8727C24.0208 8.46352 24.2008 7.71601 24.2008 7.08695C24.2008 6.46771 23.9496 5.90326 23.6243 5.49455C23.4612 5.28968 23.2758 5.11916 23.087 4.99844C22.9008 4.87941 22.6972 4.8 22.5008 4.79998L22.4979 4.80002C22.1278 4.80539 21.7694 4.93142 21.473 5.15913L21.4729 5.15897L21.466 5.16473C21.3606 5.25346 21.3008 5.38443 21.3008 5.52174V7.24818L19.9063 10.4016L19.5469 10.5889L19.5469 10.5889C19.4936 10.6167 19.4467 10.6548 19.4085 10.7007C19.3703 10.7466 19.3415 10.7995 19.3234 10.8561C19.3052 10.9128 19.298 10.9724 19.3021 11.0316C19.3061 11.0909 19.3212 11.149 19.3469 11.2027C19.3726 11.2564 19.4085 11.3049 19.4529 11.345C19.4972 11.3852 19.5492 11.4163 19.6061 11.4361C19.663 11.456 19.7232 11.4639 19.7834 11.4595C19.8435 11.4551 19.902 11.4383 19.9553 11.4106L19.9553 11.4105L20.4553 11.1497L20.4564 11.1491C20.5476 11.1008 20.6189 11.0229 20.6605 10.9295L20.6607 10.9291L22.1607 7.53777L22.1608 7.53767C22.1872 7.47791 22.2007 7.41327 22.2008 7.34809V7.34782V5.78688C22.2833 5.75165 22.3871 5.72174 22.5008 5.72174C22.5 5.72174 22.4995 5.72172 22.4995 5.72175C22.4995 5.72189 22.512 5.72334 22.5392 5.73578C22.5691 5.74952 22.6077 5.77241 22.6526 5.80615C22.7424 5.87357 22.846 5.97539 22.9442 6.1049C23.1418 6.36548 23.3008 6.71539 23.3008 7.08695C23.3008 7.51836 23.187 8.05772 23.0676 8.50159C22.952 8.93099 22.8359 9.25439 22.8287 9.2746L22.8284 9.27527C22.8284 9.27535 22.8284 9.27544 22.8284 9.27552C22.8284 9.27552 22.8284 9.27552 22.8284 9.27553C22.8039 9.34421 22.7958 9.41773 22.8044 9.49002C22.8131 9.56241 22.8385 9.6321 22.8789 9.69312C22.9193 9.75418 22.9739 9.80501 23.0385 9.84059C23.1032 9.87619 23.1757 9.89525 23.2498 9.89564H23.2508H26.7508C27.0459 9.89564 27.3008 10.1491 27.3008 10.4782C27.3008 10.6823 27.2003 10.8667 27.0341 10.9744C26.9657 11.0178 26.9106 11.0787 26.8737 11.1501C26.8366 11.2219 26.8189 11.3021 26.822 11.3826C26.825 11.4631 26.8486 11.5419 26.8911 11.6107C26.9335 11.6793 26.9934 11.7359 27.0654 11.7737C27.2093 11.8509 27.3007 12.003 27.3008 12.1734C27.3003 12.2863 27.26 12.3937 27.1895 12.4755C27.1192 12.5572 27.0241 12.6073 26.9233 12.6191L26.9228 12.6191C26.8359 12.6294 26.7546 12.6653 26.6882 12.7215C26.6219 12.7775 26.5734 12.8513 26.5472 12.9334C26.521 13.0154 26.5179 13.1033 26.5381 13.187C26.5583 13.2706 26.6012 13.3475 26.6629 13.4083C26.752 13.4961 26.8007 13.6126 26.8008 13.7386C26.8002 13.8515 26.7598 13.959 26.6893 14.0409C26.6188 14.1227 26.5236 14.173 26.4226 14.1848L26.4223 14.1848C26.3354 14.1951 26.2541 14.231 26.1877 14.2872C26.1214 14.3433 26.0729 14.417 26.0467 14.4991C26.0205 14.5812 26.0174 14.669 26.0376 14.7527C26.0578 14.8363 26.1007 14.9133 26.1624 14.974C26.2516 15.062 26.3003 15.1786 26.3003 15.3048C26.3003 15.562 26.1014 15.757 25.8753 15.757H21.2503C21.0739 15.757 20.8235 15.7126 20.5865 15.6364C20.3425 15.5579 20.1539 15.4588 20.0717 15.3731L20.0718 15.3731L20.0693 15.3706C19.9851 15.2857 19.8704 15.2371 19.7497 15.2382C19.6289 15.2393 19.5152 15.2899 19.4325 15.3763C19.35 15.4623 19.3047 15.577 19.3037 15.6952C19.3027 15.8134 19.3461 15.9288 19.4271 16.0162ZM19.9273 15.5115C20.1638 15.7582 20.8443 15.957 21.2503 15.957H25.8753C26.2198 15.957 26.5003 15.6643 26.5003 15.3048C26.5003 15.1254 26.4303 14.9574 26.3028 14.8316C26.2682 14.7976 26.2436 14.7539 26.232 14.7058C26.2204 14.6576 26.2222 14.607 26.2372 14.5599C26.2522 14.5128 26.2799 14.4712 26.3168 14.4399C26.3538 14.4086 26.3986 14.389 26.4458 14.3835C26.5979 14.3657 26.7385 14.2902 26.8408 14.1715C26.9431 14.0527 27.0001 13.8988 27.0008 13.7391C27.0008 13.5596 26.9308 13.3916 26.8033 13.2659C26.7687 13.2318 26.7441 13.1882 26.7325 13.14C26.7209 13.0919 26.7227 13.0413 26.7377 12.9942C26.7527 12.9471 26.7804 12.9054 26.8173 12.8742C26.8543 12.8429 26.8991 12.8233 26.9463 12.8177C27.0983 12.8001 27.2388 12.7247 27.3411 12.606C27.4433 12.4873 27.5002 12.3335 27.5008 12.1739C27.5008 11.9308 27.3698 11.7095 27.1588 11.5969C27.1191 11.5761 27.0854 11.5445 27.0613 11.5055C27.0372 11.4665 27.0236 11.4215 27.0218 11.3751C27.0201 11.3288 27.0303 11.2828 27.0514 11.2419C27.0725 11.2011 27.1037 11.1669 27.1418 11.1429C27.3663 10.9979 27.5008 10.7496 27.5008 10.4782C27.5008 10.0468 27.1643 9.69564 26.7508 9.69564H23.2508C23.2104 9.69543 23.1707 9.68505 23.135 9.66538C23.0992 9.64571 23.0686 9.61734 23.0456 9.58267C23.0226 9.54799 23.008 9.50805 23.003 9.46622C22.998 9.4244 23.0027 9.38193 23.0168 9.34242L19.9273 15.5115Z" fill="#5B3F91" stroke="#5B3F91" stroke-width="0.4"/>
<path d="M17 3.71387H35C35.6904 3.71387 36.25 4.27351 36.25 4.96387V17.1753C36.25 17.8574 35.7032 18.4136 35.0211 18.4251L30.4666 18.5022C29.57 18.5173 28.7371 18.9687 28.2348 19.7117L26.6797 22.0122C26.5841 22.1536 26.3781 22.1598 26.2742 22.0244L24.3998 19.5807C23.8885 18.9141 23.1005 18.5178 22.2606 18.5047L16.9805 18.4225C16.2979 18.4119 15.75 17.8554 15.75 17.1727V4.96387C15.75 4.27351 16.3096 3.71387 17 3.71387Z" stroke="#5B3F91" stroke-width="1.5"/>
<path d="M1 4.92727V3C1 1.89543 1.89543 1 3 1H11C12.1046 1 13 1.89543 13 3V7.50636C13 8.59826 12.1242 9.48836 11.0325 9.50609L9.89309 9.5246C9.25386 9.53498 8.65812 9.85033 8.29012 10.3731L7.66933 11.255C7.47749 11.5276 7.07778 11.5397 6.86979 11.2793L6.07051 10.2786C5.69753 9.81164 5.13527 9.53595 4.5377 9.52702L2.97011 9.50358C1.87732 9.48725 1 8.59672 1 7.50381V6.89091" stroke="#5B3F91" stroke-width="1.5" stroke-linecap="round"/>
<path d="M3 19.8777V17.2363C3 16.1318 3.89543 15.2363 5 15.2363H13M3 22.1983V23.2813C3 24.374 3.87708 25.2645 4.96972 25.281L7.27716 25.316C7.87899 25.3251 8.44471 25.6048 8.81739 26.0774L9.91534 27.4699C10.1233 27.7336 10.5269 27.7214 10.7186 27.4456L11.5917 26.1891C11.9655 25.6512 12.579 25.3304 13.2341 25.3304H15.7764C16.4656 25.3304 17.0189 24.7616 17 24.0727V24.0727V22.1091V21.1272V20.1454" stroke="#5B3F91" stroke-width="1.5" stroke-linecap="round"/>
<path d="M9.36862 6.04505L9.36864 6.04508L9.37135 6.04249C9.90235 5.53563 10.2 5.00743 10.2 4.45961C10.2 3.94793 10.0436 3.52369 9.71114 3.21387C9.38084 2.90603 8.93497 2.76387 8.39955 2.76387C8.23879 2.76387 8.07716 2.79052 7.91536 2.842C7.75586 2.89275 7.60651 2.96154 7.46788 3.04856C7.34027 3.12867 7.22841 3.20513 7.13308 3.27792C7.08766 3.31261 7.0433 3.34835 7 3.38515C6.9567 3.34835 6.91234 3.31261 6.86692 3.27792C6.77159 3.20513 6.65973 3.12867 6.53212 3.04856C6.39349 2.96154 6.24414 2.89275 6.08464 2.842C5.92284 2.79052 5.76121 2.76387 5.60045 2.76387C5.06503 2.76387 4.61916 2.90603 4.28886 3.21387C3.95644 3.52369 3.8 3.94793 3.8 4.45961C3.8 4.6272 3.83084 4.79637 3.88972 4.96618C3.94587 5.12812 4.01161 5.2715 4.08849 5.39381C4.16052 5.50841 4.24183 5.61962 4.33221 5.72745C4.41703 5.82866 4.48448 5.90517 4.5312 5.95104C4.56843 5.98759 4.60336 6.01988 4.63395 6.04411L6.71609 7.96153C6.79503 8.03616 6.89376 8.07296 7 8.07296C7.10621 8.07296 7.2049 8.03618 7.28383 7.96161L9.36862 6.04505ZM9.31146 4.07087C9.34992 4.17673 9.37143 4.30519 9.37143 4.45961C9.37143 4.73681 9.20798 5.0666 8.80517 5.45148L7 7.1122L5.19147 5.44827C4.79118 5.06579 4.62857 4.73705 4.62857 4.45961C4.62857 4.30519 4.65008 4.17673 4.68854 4.07087C4.72975 3.95741 4.77837 3.87892 4.82888 3.82639C4.88469 3.76834 4.95439 3.71899 5.04078 3.67948C5.13394 3.63687 5.22193 3.60963 5.30507 3.59583C5.39578 3.58077 5.49411 3.57296 5.60045 3.57296C5.68527 3.57296 5.78456 3.59285 5.90026 3.63979C6.01967 3.68823 6.12865 3.7486 6.22774 3.82071C6.33667 3.89998 6.42789 3.97261 6.50222 4.03864C6.57804 4.10599 6.63886 4.16569 6.68587 4.2179C6.76874 4.31332 6.88118 4.35598 7 4.35598C7.11882 4.35598 7.23126 4.31332 7.31413 4.2179C7.36114 4.16569 7.42196 4.10599 7.49778 4.03864C7.57211 3.97261 7.66333 3.89998 7.77226 3.82071C7.87135 3.7486 7.98033 3.68823 8.09974 3.63979C8.21544 3.59285 8.31473 3.57296 8.39955 3.57296C8.50589 3.57296 8.60422 3.58077 8.69493 3.59583C8.77807 3.60963 8.86606 3.63687 8.95922 3.67948C9.04561 3.71899 9.11531 3.76834 9.17112 3.82639C9.22163 3.87892 9.27025 3.95741 9.31146 4.07087Z" fill="#5B3F91" stroke="#5B3F91" stroke-width="0.4"/>
<path d="M8.65002 18.6763H8.65001V22.5965V22.5999H8.65C8.64943 22.7085 8.70639 22.8157 8.81011 22.8789C8.9156 22.9432 9.04932 22.9494 9.16061 22.8949L9.42484 23.434L9.16061 22.8949L13.16 20.9348L13.1609 20.9343C13.2818 20.8753 13.35 20.7597 13.35 20.6412C13.35 20.5229 13.2816 20.407 13.1609 20.3481L12.7961 20.17V20.1596L9.16061 18.3779C9.04932 18.3233 8.91562 18.3296 8.81011 18.3939L8.65002 18.6763ZM8.65002 18.6763L8.65 18.6729M8.65002 18.6763L8.65 18.6729M8.65 18.6729C8.64944 18.5642 8.70638 18.4571 8.8101 18.3939L8.65 18.6729Z" stroke="#5B3F91" stroke-width="1.3"/>
</svg>
