<svg width="41" height="41" viewBox="0 0 41 41" fill="none" xmlns="http://www.w3.org/2000/svg">
<path fill-rule="evenodd" clip-rule="evenodd" d="M20.432 5.10628C12.1477 5.10628 5.43197 11.822 5.43197 20.1063C5.43197 28.3906 12.1477 35.1063 20.432 35.1063C28.7162 35.1063 35.432 28.3906 35.432 20.1063C35.432 11.822 28.7162 5.10628 20.432 5.10628ZM2.09863 20.1063C2.09863 9.98106 10.3067 1.77295 20.432 1.77295C30.5572 1.77295 38.7653 9.98106 38.7653 20.1063C38.7653 30.2315 30.5572 38.4396 20.432 38.4396C10.3067 38.4396 2.09863 30.2315 2.09863 20.1063ZM20.432 11.7729C21.3524 11.7729 22.0986 12.5191 22.0986 13.4396V20.1063C22.0986 21.0268 21.3524 21.7729 20.432 21.7729C19.5115 21.7729 18.7653 21.0268 18.7653 20.1063V13.4396C18.7653 12.5191 19.5115 11.7729 20.432 11.7729ZM20.432 25.1063C19.5115 25.1063 18.7653 25.8525 18.7653 26.7729C18.7653 27.6934 19.5115 28.4396 20.432 28.4396H20.4486C21.3691 28.4396 22.1153 27.6934 22.1153 26.7729C22.1153 25.8525 21.3691 25.1063 20.4486 25.1063H20.432Z" fill="#5B3F91"/>
</svg>
