<svg width="16" height="19" viewBox="0 0 16 19" fill="none" xmlns="http://www.w3.org/2000/svg">
<path d="M14 0.354004C14.2812 0.354004 14.5156 0.455566 14.7031 0.658691C14.9062 0.846191 15.0078 1.08057 15.0078 1.36182V17.3462C15.0078 17.6274 14.9062 17.8696 14.7031 18.0728C14.5156 18.2603 14.2812 18.354 14 18.354C13.7188 18.354 13.4766 18.2603 13.2734 18.0728C13.0859 17.8696 12.9922 17.6274 12.9922 17.3462V1.36182C12.9922 1.08057 13.0859 0.846191 13.2734 0.658691C13.4766 0.455566 13.7188 0.354004 14 0.354004ZM8 6.354C8.28125 6.354 8.51562 6.45557 8.70312 6.65869C8.90625 6.84619 9.00781 7.08057 9.00781 7.36182V17.3462C9.00781 17.6274 8.90625 17.8696 8.70312 18.0728C8.51562 18.2603 8.28125 18.354 8 18.354C7.71875 18.354 7.47656 18.2603 7.27344 18.0728C7.08594 17.8696 6.99219 17.6274 6.99219 17.3462V7.36182C6.99219 7.08057 7.08594 6.84619 7.27344 6.65869C7.47656 6.45557 7.71875 6.354 8 6.354ZM3.00781 13.3618C3.00781 13.0806 2.90625 12.8462 2.70312 12.6587C2.51562 12.4556 2.28125 12.354 2 12.354C1.71875 12.354 1.47656 12.4556 1.27344 12.6587C1.08594 12.8462 0.992188 13.0806 0.992188 13.3618V17.3462C0.992188 17.6274 1.08594 17.8696 1.27344 18.0728C1.47656 18.2603 1.71875 18.354 2 18.354C2.28125 18.354 2.51562 18.2603 2.70312 18.0728C2.90625 17.8696 3.00781 17.6274 3.00781 17.3462V13.3618Z" fill="white"/>
</svg>
