<svg width="15" height="19" viewBox="0 0 15 19" fill="none" xmlns="http://www.w3.org/2000/svg">
<path d="M13.3131 0.40918C13.5944 0.40918 13.8287 0.510742 14.0162 0.713867C14.2194 0.901367 14.3209 1.13574 14.3209 1.41699V17.4014C14.3209 17.6826 14.2194 17.9248 14.0162 18.1279C13.8287 18.3154 13.5944 18.4092 13.3131 18.4092C13.0319 18.4092 12.7897 18.3154 12.5865 18.1279C12.399 17.9248 12.3053 17.6826 12.3053 17.4014V1.41699C12.3053 1.13574 12.399 0.901367 12.5865 0.713867C12.7897 0.510742 13.0319 0.40918 13.3131 0.40918ZM7.31311 6.40918C7.59436 6.40918 7.82874 6.51074 8.01624 6.71387C8.21936 6.90137 8.32092 7.13574 8.32092 7.41699V17.4014C8.32092 17.6826 8.21936 17.9248 8.01624 18.1279C7.82874 18.3154 7.59436 18.4092 7.31311 18.4092C7.03186 18.4092 6.78967 18.3154 6.58655 18.1279C6.39905 17.9248 6.3053 17.6826 6.3053 17.4014V7.41699C6.3053 7.13574 6.39905 6.90137 6.58655 6.71387C6.78967 6.51074 7.03186 6.40918 7.31311 6.40918ZM2.32092 13.417C2.32092 13.1357 2.21936 12.9014 2.01624 12.7139C1.82874 12.5107 1.59436 12.4092 1.31311 12.4092C1.03186 12.4092 0.789673 12.5107 0.586548 12.7139C0.399048 12.9014 0.305298 13.1357 0.305298 13.417V17.4014C0.305298 17.6826 0.399048 17.9248 0.586548 18.1279C0.789673 18.3154 1.03186 18.4092 1.31311 18.4092C1.59436 18.4092 1.82874 18.3154 2.01624 18.1279C2.21936 17.9248 2.32092 17.6826 2.32092 17.4014V13.417Z" fill="#5B3F91"/>
</svg>
