<svg width="400" height="540" viewBox="0 0 400 540" fill="none" xmlns="http://www.w3.org/2000/svg">
<rect x="2" y="2" width="396" height="536" rx="14" fill="#FFFFFF" fill-opacity="0.2"/>
<rect x="39" y="444" width="321" height="56" rx="12" fill="#5B3F91"/>
<path d="M71.2661 464.2H67.9061V474.124C67.9061 476.884 66.3461 478.096 64.0301 478.096C61.7141 478.096 60.1541 476.884 60.1541 474.124V464.2H56.7941V474.292C56.7941 478.936 59.7581 481.3 64.0301 481.3C68.3021 481.3 71.2661 478.936 71.2661 474.292V464.2ZM81.1564 469.06C79.5604 469.06 78.4444 469.708 77.6884 470.656V469.372H74.6284V485.8H77.7484V479.788C78.5044 480.688 79.6084 481.3 81.1684 481.3C84.3724 481.3 86.7964 478.672 86.7964 475.18C86.7964 471.688 84.3724 469.06 81.1564 469.06ZM80.5804 471.976C82.4284 471.976 83.5804 473.404 83.5804 475.18C83.5804 476.956 82.4284 478.384 80.5804 478.384C78.8044 478.384 77.5924 477.016 77.5924 475.18C77.5924 473.344 78.8044 471.976 80.5804 471.976ZM93.9791 469.06C91.1471 469.06 88.6271 471.424 88.6271 475C88.6271 478.564 91.1471 480.928 93.9791 480.928C95.5871 480.928 96.7631 480.328 97.5551 479.356V480.172C97.5551 482.176 96.1871 483.256 94.2431 483.256C92.8511 483.256 91.5671 482.836 90.4031 482.068L89.2871 484.624C90.5951 485.548 92.5391 486.028 94.3751 486.028C98.2151 486.028 100.651 483.772 100.651 480.04V469.372H97.5791V470.668C96.7871 469.684 95.5991 469.06 93.9791 469.06ZM94.7711 471.94C96.5111 471.94 97.6871 473.26 97.6871 475C97.6871 476.728 96.5111 478.048 94.7711 478.048C92.9831 478.048 91.8431 476.68 91.8431 475C91.8431 473.308 92.9831 471.94 94.7711 471.94ZM110.261 469.06C108.833 469.06 107.717 469.552 106.985 470.644V469.372H103.949V481H107.081V474.664C107.081 472.936 108.077 472.048 109.529 472.048C110.165 472.048 110.909 472.192 111.425 472.42L111.893 469.312C111.461 469.156 110.933 469.06 110.261 469.06ZM125.076 469.372H122.016V470.656C121.248 469.708 120.132 469.06 118.536 469.06C115.332 469.06 112.908 471.688 112.908 475.18C112.908 478.672 115.332 481.3 118.536 481.3C120.132 481.3 121.26 480.652 122.016 479.716V481H125.076V469.372ZM119.112 471.976C120.9 471.976 122.112 473.344 122.112 475.18C122.112 477.016 120.9 478.384 119.112 478.384C117.276 478.384 116.112 476.956 116.112 475.18C116.112 473.404 117.276 471.976 119.112 471.976ZM133.279 469.06C130.075 469.06 127.651 471.688 127.651 475.18C127.651 478.672 130.075 481.3 133.279 481.3C134.875 481.3 136.003 480.652 136.759 479.716V481H139.819V463.72H136.699V470.584C135.943 469.672 134.839 469.06 133.279 469.06ZM133.855 471.976C135.643 471.976 136.855 473.344 136.855 475.18C136.855 477.016 135.643 478.384 133.855 478.384C132.019 478.384 130.855 476.956 130.855 475.18C130.855 473.404 132.019 471.976 133.855 471.976ZM148.273 469.06C144.793 469.06 142.393 471.556 142.393 475.216C142.393 478.876 144.865 481.3 148.429 481.3C150.385 481.3 152.065 480.748 153.385 479.536L151.549 477.52C150.709 478.228 149.617 478.636 148.609 478.636C147.133 478.636 145.957 477.904 145.621 476.224H153.865C153.901 475.96 153.925 475.528 153.925 475.168C153.913 471.544 151.621 469.06 148.273 469.06ZM148.249 471.76C149.593 471.76 150.493 472.6 150.781 474.088H145.633C145.909 472.648 146.773 471.76 148.249 471.76ZM170.744 469.372H166.532V465.916H163.4V469.372H161.156V472.156H163.4V476.656C163.4 479.668 164.876 481.3 167.756 481.3C169.412 481.3 170.588 480.772 171.608 480.076L170.456 477.628C169.82 478.012 169.016 478.384 168.272 478.384C167.3 478.384 166.532 477.856 166.532 476.404V472.156H170.744V469.372ZM178.927 469.06C175.315 469.06 172.651 471.676 172.651 475.18C172.651 478.684 175.315 481.3 178.927 481.3C182.551 481.3 185.227 478.684 185.227 475.18C185.227 471.676 182.551 469.06 178.927 469.06ZM178.927 471.976C180.691 471.976 182.023 473.296 182.023 475.18C182.023 477.064 180.691 478.384 178.927 478.384C177.163 478.384 175.843 477.064 175.843 475.18C175.843 473.296 177.163 471.976 178.927 471.976ZM247.924 469.372H243.712V465.916H240.58V469.372H238.336V472.156H240.58V476.656C240.58 479.668 242.056 481.3 244.936 481.3C246.592 481.3 247.768 480.772 248.788 480.076L247.636 477.628C247 478.012 246.196 478.384 245.452 478.384C244.48 478.384 243.712 477.856 243.712 476.404V472.156H247.924V469.372ZM256.106 469.06C252.494 469.06 249.83 471.676 249.83 475.18C249.83 478.684 252.494 481.3 256.106 481.3C259.73 481.3 262.406 478.684 262.406 475.18C262.406 471.676 259.73 469.06 256.106 469.06ZM256.106 471.976C257.87 471.976 259.202 473.296 259.202 475.18C259.202 477.064 257.87 478.384 256.106 478.384C254.342 478.384 253.022 477.064 253.022 475.18C253.022 473.296 254.342 471.976 256.106 471.976ZM281.802 469.372H278.682V475.768C278.682 477.628 277.65 478.384 276.306 478.384C274.95 478.384 273.93 477.628 273.93 475.768V469.372H270.798V476.044C270.798 479.716 273.39 481.3 276.306 481.3C279.21 481.3 281.802 479.716 281.802 476.044V469.372ZM291.471 469.06C290.151 469.06 288.879 469.504 288.051 470.74V469.372H285.003V481H288.135V474.628C288.135 472.876 289.251 472 290.595 472C292.023 472 292.863 472.924 292.863 474.604V481H295.995V473.596C295.995 470.896 294.111 469.06 291.471 469.06ZM302.315 463.72H299.183V481H302.315V463.72ZM311.161 469.06C307.549 469.06 304.885 471.676 304.885 475.18C304.885 478.684 307.549 481.3 311.161 481.3C314.785 481.3 317.461 478.684 317.461 475.18C317.461 471.676 314.785 469.06 311.161 469.06ZM311.161 471.976C312.925 471.976 314.257 473.296 314.257 475.18C314.257 477.064 312.925 478.384 311.161 478.384C309.397 478.384 308.077 477.064 308.077 475.18C308.077 473.296 309.397 471.976 311.161 471.976ZM325.491 469.06C321.783 469.06 319.299 471.664 319.299 475.18C319.299 478.708 321.783 481.3 325.491 481.3C327.435 481.3 329.067 480.52 330.159 479.116L327.927 477.208C327.267 477.928 326.403 478.384 325.395 478.384C323.775 478.384 322.491 477.124 322.491 475.18C322.491 473.248 323.787 471.976 325.407 471.976C326.427 471.976 327.183 472.384 327.891 473.14L330.147 471.256C329.079 469.852 327.435 469.06 325.491 469.06ZM335.549 463.72H332.417V481H335.549V476.296H336.605L339.953 481H343.805L339.185 474.844L343.769 469.372H339.929L336.653 473.512H335.549V463.72Z" fill="white"/>
<path d="M200.854 474.856C204.838 474.856 206.974 472.768 206.974 469.54C206.974 466.288 204.838 464.2 200.83 464.2H193.978V481H197.326V474.856H200.854ZM200.77 467.284C202.594 467.284 203.542 468.04 203.542 469.54C203.542 471.052 202.594 471.796 200.77 471.796H197.326V467.284H200.77ZM215.87 469.06C214.442 469.06 213.326 469.552 212.594 470.644V469.372H209.558V481H212.69V474.664C212.69 472.936 213.686 472.048 215.138 472.048C215.774 472.048 216.518 472.192 217.034 472.42L217.502 469.312C217.07 469.156 216.542 469.06 215.87 469.06ZM224.794 469.06C221.182 469.06 218.518 471.676 218.518 475.18C218.518 478.684 221.182 481.3 224.794 481.3C228.418 481.3 231.094 478.684 231.094 475.18C231.094 471.676 228.418 469.06 224.794 469.06ZM224.794 471.976C226.558 471.976 227.89 473.296 227.89 475.18C227.89 477.064 226.558 478.384 224.794 478.384C223.03 478.384 221.71 477.064 221.71 475.18C221.71 473.296 223.03 471.976 224.794 471.976Z" fill="#F58634"/>
<rect x="304" y="24" width="72" height="72" rx="36" fill="#695099"/>
<path d="M353.333 58H327.667C325.642 58 324 59.6281 324 61.6364V74.3636C324 76.3719 325.642 78 327.667 78H353.333C355.358 78 357 76.3719 357 74.3636V61.6364C357 59.6281 355.358 58 353.333 58Z" stroke="white" stroke-width="4" stroke-linecap="round" stroke-linejoin="round"/>
<path d="M331 58V50.8889C331 48.5314 331.948 46.2705 333.636 44.6035C335.324 42.9365 337.613 42 340 42C342.387 42 344.676 42.9365 346.364 44.6035C348.052 46.2705 349 48.5314 349 50.8889V58" stroke="white" stroke-width="4" stroke-linecap="round" stroke-linejoin="round"/>
<rect x="2" y="2" width="396" height="536" rx="14" stroke="#F58634" stroke-width="4"/>
</svg>
