<svg width="400" height="540" viewBox="0 0 400 540" fill="none" xmlns="http://www.w3.org/2000/svg">
<rect x="2" y="2" width="396" height="536" rx="14" fill="#FFFFFF" fill-opacity="0.2"/>
<path d="M234 171H164C158.477 171 154 175.477 154 181V216C154 221.523 158.477 226 164 226H234C239.523 226 244 221.523 244 216V181C244 175.477 239.523 171 234 171Z" stroke="#F58634" stroke-width="8" stroke-linecap="round" stroke-linejoin="round"/>
<path d="M174 171V151C174 144.37 176.634 138.011 181.322 133.322C186.011 128.634 192.37 126 199 126C205.63 126 211.989 128.634 216.678 133.322C221.366 138.011 224 144.37 224 151V171" stroke="#F58634" stroke-width="8" stroke-linecap="round" stroke-linejoin="round"/>
<path d="M117.261 317H111.661V333.54C111.661 338.14 109.061 340.16 105.201 340.16C101.341 340.16 98.7413 338.14 98.7413 333.54V317H93.1413V333.82C93.1413 341.56 98.0813 345.5 105.201 345.5C112.321 345.5 117.261 341.56 117.261 333.82V317ZM133.745 325.1C131.085 325.1 129.225 326.18 127.965 327.76V325.62H122.865V353H128.065V342.98C129.325 344.48 131.165 345.5 133.765 345.5C139.105 345.5 143.145 341.12 143.145 335.3C143.145 329.48 139.105 325.1 133.745 325.1ZM132.785 329.96C135.865 329.96 137.785 332.34 137.785 335.3C137.785 338.26 135.865 340.64 132.785 340.64C129.825 340.64 127.805 338.36 127.805 335.3C127.805 332.24 129.825 329.96 132.785 329.96ZM155.116 325.1C150.396 325.1 146.196 329.04 146.196 335C146.196 340.94 150.396 344.88 155.116 344.88C157.796 344.88 159.756 343.88 161.076 342.26V343.62C161.076 346.96 158.796 348.76 155.556 348.76C153.236 348.76 151.096 348.06 149.156 346.78L147.296 351.04C149.476 352.58 152.716 353.38 155.776 353.38C162.176 353.38 166.236 349.62 166.236 343.4V325.62H161.116V327.78C159.796 326.14 157.816 325.1 155.116 325.1ZM156.436 329.9C159.336 329.9 161.296 332.1 161.296 335C161.296 337.88 159.336 340.08 156.436 340.08C153.456 340.08 151.556 337.8 151.556 335C151.556 332.18 153.456 329.9 156.436 329.9ZM182.252 325.1C179.872 325.1 178.012 325.92 176.792 327.74V325.62H171.732V345H176.952V334.44C176.952 331.56 178.612 330.08 181.032 330.08C182.092 330.08 183.332 330.32 184.192 330.7L184.972 325.52C184.252 325.26 183.372 325.1 182.252 325.1ZM206.945 325.62H201.845V327.76C200.565 326.18 198.705 325.1 196.045 325.1C190.705 325.1 186.665 329.48 186.665 335.3C186.665 341.12 190.705 345.5 196.045 345.5C198.705 345.5 200.585 344.42 201.845 342.86V345H206.945V325.62ZM197.005 329.96C199.985 329.96 202.005 332.24 202.005 335.3C202.005 338.36 199.985 340.64 197.005 340.64C193.945 340.64 192.005 338.26 192.005 335.3C192.005 332.34 193.945 329.96 197.005 329.96ZM220.615 325.1C215.275 325.1 211.235 329.48 211.235 335.3C211.235 341.12 215.275 345.5 220.615 345.5C223.275 345.5 225.155 344.42 226.415 342.86V345H231.515V316.2H226.315V327.64C225.055 326.12 223.215 325.1 220.615 325.1ZM221.575 329.96C224.555 329.96 226.575 332.24 226.575 335.3C226.575 338.36 224.555 340.64 221.575 340.64C218.515 340.64 216.575 338.26 216.575 335.3C216.575 332.34 218.515 329.96 221.575 329.96ZM245.606 325.1C239.806 325.1 235.806 329.26 235.806 335.36C235.806 341.46 239.926 345.5 245.866 345.5C249.126 345.5 251.926 344.58 254.126 342.56L251.066 339.2C249.666 340.38 247.846 341.06 246.166 341.06C243.706 341.06 241.746 339.84 241.186 337.04H254.926C254.986 336.6 255.026 335.88 255.026 335.28C255.006 329.24 251.186 325.1 245.606 325.1ZM245.566 329.6C247.806 329.6 249.306 331 249.786 333.48H241.206C241.666 331.08 243.106 329.6 245.566 329.6ZM283.058 325.62H276.038V319.86H270.818V325.62H267.078V330.26H270.818V337.76C270.818 342.78 273.278 345.5 278.078 345.5C280.838 345.5 282.798 344.62 284.498 343.46L282.578 339.38C281.518 340.02 280.178 340.64 278.938 340.64C277.318 340.64 276.038 339.76 276.038 337.34V330.26H283.058V325.62ZM296.695 325.1C290.675 325.1 286.235 329.46 286.235 335.3C286.235 341.14 290.675 345.5 296.695 345.5C302.735 345.5 307.195 341.14 307.195 335.3C307.195 329.46 302.735 325.1 296.695 325.1ZM296.695 329.96C299.635 329.96 301.855 332.16 301.855 335.3C301.855 338.44 299.635 340.64 296.695 340.64C293.755 340.64 291.555 338.44 291.555 335.3C291.555 332.16 293.755 329.96 296.695 329.96ZM166.046 385.62H159.026V379.86H153.806V385.62H150.066V390.26H153.806V397.76C153.806 402.78 156.266 405.5 161.066 405.5C163.826 405.5 165.786 404.62 167.486 403.46L165.566 399.38C164.506 400.02 163.166 400.64 161.926 400.64C160.306 400.64 159.026 399.76 159.026 397.34V390.26H166.046V385.62ZM179.684 385.1C173.664 385.1 169.224 389.46 169.224 395.3C169.224 401.14 173.664 405.5 179.684 405.5C185.724 405.5 190.184 401.14 190.184 395.3C190.184 389.46 185.724 385.1 179.684 385.1ZM179.684 389.96C182.624 389.96 184.844 392.16 184.844 395.3C184.844 398.44 182.624 400.64 179.684 400.64C176.744 400.64 174.544 398.44 174.544 395.3C174.544 392.16 176.744 389.96 179.684 389.96ZM222.51 385.62H217.31V396.28C217.31 399.38 215.59 400.64 213.35 400.64C211.09 400.64 209.39 399.38 209.39 396.28V385.62H204.17V396.74C204.17 402.86 208.49 405.5 213.35 405.5C218.19 405.5 222.51 402.86 222.51 396.74V385.62ZM238.625 385.1C236.425 385.1 234.305 385.84 232.925 387.9V385.62H227.845V405H233.065V394.38C233.065 391.46 234.925 390 237.165 390C239.545 390 240.945 391.54 240.945 394.34V405H246.165V392.66C246.165 388.16 243.025 385.1 238.625 385.1ZM256.698 376.2H251.478V405H256.698V376.2ZM271.441 385.1C265.421 385.1 260.981 389.46 260.981 395.3C260.981 401.14 265.421 405.5 271.441 405.5C277.481 405.5 281.941 401.14 281.941 395.3C281.941 389.46 277.481 385.1 271.441 385.1ZM271.441 389.96C274.381 389.96 276.601 392.16 276.601 395.3C276.601 398.44 274.381 400.64 271.441 400.64C268.501 400.64 266.301 398.44 266.301 395.3C266.301 392.16 268.501 389.96 271.441 389.96ZM295.325 385.1C289.145 385.1 285.005 389.44 285.005 395.3C285.005 401.18 289.145 405.5 295.325 405.5C298.565 405.5 301.285 404.2 303.105 401.86L299.385 398.68C298.285 399.88 296.845 400.64 295.165 400.64C292.465 400.64 290.325 398.54 290.325 395.3C290.325 392.08 292.485 389.96 295.185 389.96C296.885 389.96 298.145 390.64 299.325 391.9L303.085 388.76C301.305 386.42 298.565 385.1 295.325 385.1ZM312.089 376.2H306.869V405H312.089V397.16H313.849L319.429 405H325.849L318.149 394.74L325.789 385.62H319.389L313.929 392.52H312.089V376.2Z" fill="black"/>
<path d="M87.597 394.76C94.237 394.76 97.797 391.28 97.797 385.9C97.797 380.48 94.237 377 87.557 377H76.137V405H81.717V394.76H87.597ZM87.457 382.14C90.497 382.14 92.077 383.4 92.077 385.9C92.077 388.42 90.497 389.66 87.457 389.66H81.717V382.14H87.457ZM112.623 385.1C110.243 385.1 108.383 385.92 107.163 387.74V385.62H102.103V405H107.323V394.44C107.323 391.56 108.983 390.08 111.403 390.08C112.463 390.08 113.703 390.32 114.563 390.7L115.343 385.52C114.623 385.26 113.743 385.1 112.623 385.1ZM127.496 385.1C121.476 385.1 117.036 389.46 117.036 395.3C117.036 401.14 121.476 405.5 127.496 405.5C133.536 405.5 137.996 401.14 137.996 395.3C137.996 389.46 133.536 385.1 127.496 385.1ZM127.496 389.96C130.436 389.96 132.656 392.16 132.656 395.3C132.656 398.44 130.436 400.64 127.496 400.64C124.556 400.64 122.356 398.44 122.356 395.3C122.356 392.16 124.556 389.96 127.496 389.96Z" fill="#F58634"/>
<rect x="2" y="2" width="396" height="536" rx="14" stroke="#F58634" stroke-width="4"/>
</svg>
