<svg width="128" height="101" viewBox="0 0 128 101" fill="none" xmlns="http://www.w3.org/2000/svg">
<path d="M126.354 36.4132C125.672 35.544 124.724 34.9923 123.676 34.9923H67.7437H60.1762H4.2603C3.2125 34.9923 2.26449 35.5272 1.58259 36.4132C0.900687 37.2825 0.468262 38.4861 0.468262 39.8235C0.468262 42.4814 2.1647 44.6379 4.2603 44.6379H30.8545C31.9023 44.6379 32.8503 45.1728 33.5322 46.0588C34.2141 46.9281 34.6465 48.1317 34.6465 49.4691C34.6465 52.127 32.9501 54.3002 30.8545 54.3002H9.99825C8.00244 54.3002 6.37253 56.3564 6.37253 58.8974V59.3487C6.37253 61.8897 7.98581 63.9458 9.99825 63.9458H30.8545C31.9023 63.9458 32.8503 64.4808 33.5322 65.3668C34.2141 66.236 34.6465 67.4396 34.6465 68.777C34.6465 71.435 32.9501 73.5914 30.8545 73.5914H9.99825C8.00244 73.5914 6.37253 75.6476 6.37253 78.1886V78.6399C6.37253 81.1809 7.98581 83.237 9.99825 83.237H60.1762H67.7437H117.922C119.917 83.237 121.547 81.1809 121.547 78.6399V78.1718C121.547 75.6309 119.934 73.5747 117.922 73.5747H97.0654C94.9698 73.5747 93.2734 71.4183 93.2734 68.7603C93.2734 67.4229 93.7058 66.2193 94.3877 65.35C95.0696 64.4808 96.0176 63.9291 97.0821 63.9291H117.938C119.934 63.9291 121.564 61.8729 121.564 59.332V58.8806C121.564 56.3397 119.951 54.2835 117.938 54.2835H97.0654C94.9698 54.2835 93.2734 52.127 93.2734 49.4524C93.2734 48.115 93.7058 46.9114 94.3877 46.0421C95.0696 45.1728 96.0176 44.6212 97.0821 44.6212H123.676C125.772 44.6212 127.468 42.4647 127.468 39.8068C127.468 38.4861 127.036 37.2825 126.354 36.4132Z" fill="#FAF2FF"/>
<path d="M75.5379 52.6199L69.307 49.764L75.5379 46.9081L78.3811 40.6495L81.2243 46.9081L87.4552 49.764L81.2243 52.6199L78.3811 58.8784L75.5379 52.6199ZM45.1093 64.9548L47.9525 58.6962L54.1834 55.8403L47.9525 52.9844L45.1093 46.7258L42.2661 52.9844L36.0352 55.8403L42.2661 58.6962L45.1093 64.9548ZM58.7205 49.764L62.0174 42.4421L69.307 39.1305L62.0174 35.8189L58.7205 28.4969L55.4235 35.8189L48.134 39.1305L55.4235 42.4421L58.7205 49.764ZM46.6216 84.7027L64.7699 66.4434L76.8687 78.596L102.579 49.5513L98.3139 45.2675L76.8687 69.4816L64.7699 57.329L42.0846 80.1455L46.6216 84.7027Z" fill="#5B3F91"/>
<path d="M107.128 95.2379C108.408 95.2379 109.456 96.2911 109.456 97.5782C109.456 98.8654 108.408 99.9186 107.128 99.9186C105.847 99.9186 104.799 98.8654 104.799 97.5782C104.799 96.2911 105.847 95.2379 107.128 95.2379ZM107.128 94.7364C105.564 94.7364 104.3 96.0069 104.3 97.5782C104.3 99.1496 105.564 100.42 107.128 100.42C108.691 100.42 109.955 99.1496 109.955 97.5782C109.955 96.0236 108.691 94.7364 107.128 94.7364Z" fill="#5B3F91"/>
<path d="M104.233 7.25744H102.42V5.4353H101.073V7.25744H99.2603V8.6115H101.073V10.4336H102.42V8.6115H104.233V7.25744Z" fill="#5B3F91"/>
<path d="M47.9851 2.24227H46.1722V0.420135H44.8084V2.24227H43.0122V3.61305H44.8084V5.43518H46.1722V3.61305H47.9851V2.24227Z" fill="#5B3F91"/>
<path d="M65.0838 25.0106C66.3698 25.0106 67.4123 23.9628 67.4123 22.6703C67.4123 21.3777 66.3698 20.3299 65.0838 20.3299C63.7979 20.3299 62.7554 21.3777 62.7554 22.6703C62.7554 23.9628 63.7979 25.0106 65.0838 25.0106Z" fill="#5B3F91"/>
<path d="M15.4539 51.4901H13.641V49.668H12.2938V51.4901H10.481V52.8609H12.2938V54.683H13.641V52.8609H15.4539V51.4901Z" fill="#5B3F91"/>
</svg>
