<svg width="41" height="33" viewBox="0 0 41 33" fill="none" xmlns="http://www.w3.org/2000/svg">
<mask id="path-1-outside-1_1169_6594" maskUnits="userSpaceOnUse" x="0" y="0" width="41" height="33" fill="black">
<rect fill="white" width="41" height="33"/>
<path d="M33.4348 20.6134C33.0488 20.4404 32.5768 20.3102 31.9762 20.1371V17.1931C32.6196 17.2363 33.2202 17.323 33.7781 17.5395C33.864 17.5827 33.9068 17.5827 33.9927 17.5827C34.1214 17.5827 34.2501 17.5395 34.336 17.4097C34.4219 17.323 34.4646 17.1931 34.4646 17.0633C34.4646 16.8035 34.336 16.6302 34.1214 16.587C33.5208 16.3273 32.7915 16.1974 31.9762 16.1974V15.3315C31.9762 15.2449 31.9334 15.115 31.8475 15.0718C31.7616 14.9851 31.676 14.9419 31.5902 14.9419C31.5043 14.9419 31.3756 14.9851 31.3328 15.0718C31.2469 15.1585 31.2469 15.2449 31.2469 15.3315V16.1974C30.6463 16.2406 30.1743 16.3704 29.7451 16.6305C29.316 16.8902 29.0158 17.1499 28.8012 17.5399C28.5867 17.8863 28.5008 18.319 28.5008 18.7089C28.5008 19.1852 28.6295 19.6183 28.8868 19.9212C29.1442 20.2245 29.4447 20.4842 29.8307 20.6572C30.2168 20.8303 30.6887 21.0037 31.2465 21.1335V23.9912C30.5172 23.948 29.8307 23.7746 29.1442 23.5149C29.0583 23.4717 28.9727 23.4717 28.9296 23.4717C28.8009 23.4717 28.6722 23.5149 28.5863 23.6448C28.5004 23.7314 28.4576 23.8613 28.4576 23.9912C28.4576 24.0779 28.5004 24.2077 28.5435 24.2944C28.6294 24.3811 28.6722 24.4675 28.8009 24.5109C29.573 24.8574 30.3883 25.0304 31.2893 25.0739V25.9397C31.2893 26.0696 31.3321 26.1563 31.3752 26.1995C31.4611 26.2862 31.5467 26.2862 31.6326 26.2862C31.7613 26.2862 31.8472 26.243 31.8899 26.1995C31.9758 26.1128 31.9758 26.0264 31.9758 25.9397V25.0739C32.5337 25.0307 33.0484 24.9008 33.4776 24.7275C33.9068 24.5109 34.2497 24.2512 34.4643 23.8616C34.6789 23.5152 34.8076 23.1256 34.8076 22.6925C34.8076 22.1731 34.6789 21.74 34.4215 21.3936C34.1641 21.0463 33.8209 20.7865 33.4348 20.6135V20.6134ZM31.2038 19.9638C30.689 19.8339 30.2599 19.6606 30.0025 19.4443C29.7451 19.2278 29.5733 18.968 29.5733 18.6216C29.5733 18.232 29.702 17.9288 30.0025 17.7122C30.3029 17.4957 30.689 17.3226 31.1609 17.2791V19.9638L31.2038 19.9638ZM31.9762 23.9905V21.3062C32.534 21.4793 32.9629 21.6094 33.2634 21.8257C33.5638 21.9987 33.6925 22.2588 33.6925 22.5617C33.6922 23.4275 33.1344 23.9038 31.9762 23.9905L31.9762 23.9905ZM31.5898 11.218C30.9464 11.218 30.3458 11.3047 29.7451 11.3911V11.3044V8.10064H29.7023C29.7451 7.97077 29.7451 7.8409 29.7451 7.71104V4.4638C29.7451 1.73604 22.1083 1 18.0754 1C14.0425 1 6.4057 1.736 6.4057 4.4638V7.71104C6.4057 7.8409 6.4485 7.97077 6.4485 8.10064H6.4057V11.3479C6.4057 11.4777 6.4485 11.6076 6.4485 11.7375H6.4057V14.9847C6.4057 15.1146 6.4485 15.2444 6.4485 15.3743H6.4057V18.6216C6.4057 18.7082 6.4057 18.7514 6.4485 18.8381C4.21775 19.0546 1 19.704 1 21.3493V23.7738C1 23.8605 1 23.9904 1.0428 24.077L1 24.0767V26.5013C1 26.588 1 26.7178 1.0428 26.8045H1V29.229C1 31.3938 6.62026 32 9.9239 32C13.2275 32 18.8478 31.4371 18.8478 29.229V26.8045H18.805C18.8478 26.7178 18.8478 26.588 18.8478 26.5013V25.6354C20.4782 25.5922 22.1084 25.5056 23.5242 25.289C25.1974 28.1899 28.2437 29.965 31.5471 29.965C36.6954 29.965 40.8571 25.7653 40.8571 20.5697C40.8571 15.3742 36.7383 11.2176 31.59 11.2176L31.5898 11.218ZM18.0753 2.29897C24.8968 2.29897 28.4579 3.8145 28.4579 4.46379C28.4579 5.11312 24.9396 6.62862 18.0753 6.62862C11.2106 6.62862 7.69265 5.11308 7.69265 4.46379C7.69265 3.81447 11.2536 2.29897 18.0753 2.29897V2.29897ZM7.73555 6.15236C10.0953 7.49447 15.1149 7.88406 18.1182 7.88406C21.1213 7.88406 26.1411 7.49446 28.5008 6.15236V7.66789C28.5008 8.31721 24.9825 9.83271 18.1182 9.83271C11.2535 9.83271 7.73555 8.31718 7.73555 7.66789V6.15236ZM7.73555 9.3996C10.0953 10.7417 15.1149 11.1313 18.1182 11.1313C21.1213 11.1313 26.1411 10.7417 28.5008 9.3996V11.3479C28.5008 11.9972 24.9825 13.5127 18.1182 13.5127C11.2535 13.5127 7.73555 11.9972 7.73555 11.3479V9.3996ZM7.73555 13.0367C10.0953 14.3788 15.1149 14.7684 18.1182 14.7684C19.9629 14.7684 22.58 14.5954 24.8541 14.2055C24.1248 14.9847 23.567 15.8508 23.1382 16.8034C21.5936 17.02 19.8776 17.1067 18.1185 17.1067C11.2969 17.1067 7.73586 15.5911 7.73586 14.9418L7.73555 13.0367ZM18.8475 24.1206C18.8903 24.034 18.8903 23.9041 18.8903 23.8174V22.0422C20.0916 22.0422 21.2928 21.9555 22.4085 21.8256C22.4944 22.6048 22.709 23.3843 22.9664 24.0771C21.6792 24.2502 20.3064 24.3369 18.8906 24.3804L18.8475 24.1206ZM7.73555 16.6736C10.0953 18.0158 15.1149 18.4054 18.1182 18.4054C19.7055 18.4054 21.2072 18.3187 22.6658 18.1456C22.4513 18.9248 22.3226 19.7043 22.3226 20.527C21.1641 20.6569 19.9628 20.7001 18.7188 20.7435C17.7321 19.0982 12.9267 18.6219 9.96649 18.6219C9.23717 18.6219 8.50785 18.6651 7.77849 18.7086C7.7357 18.6654 7.7357 18.6219 7.7357 18.6219L7.73555 16.6736ZM7.13492 20.0508H7.26361C7.3495 20.0508 7.43509 20.0508 7.52098 20.0076C8.29309 19.9644 9.10833 19.9209 9.92349 19.9209C14.5143 19.9209 17.3029 20.8734 17.5603 21.3497C17.3029 21.8692 14.514 22.8217 9.92349 22.8217C9.32286 22.8217 8.7222 22.8217 8.12155 22.7785C4.30315 22.562 2.45816 21.7393 2.2867 21.3929C2.45848 21.0899 3.83122 20.3537 7.13485 20.0508L7.13492 20.0508ZM2.28676 22.9084C4.00275 23.7743 6.92033 23.9908 8.07887 24.0775C8.7223 24.1207 9.32291 24.1207 9.92356 24.1207C12.2402 24.1207 15.7157 23.8175 17.5604 22.9084V23.7742C17.5604 23.8174 17.3458 24.0775 16.4878 24.3804C14.986 24.8998 12.5407 25.2462 9.92356 25.2462C5.29 25.2462 2.4583 24.2937 2.28676 23.7742V22.9084ZM2.28676 25.3329C4.13146 26.2423 7.60686 26.5452 9.92356 26.5452C12.6694 26.5452 15.1578 26.1988 16.7883 25.6359H17.5604V26.4586C17.3458 26.978 14.5572 27.9306 9.92356 27.9306C5.28992 27.9306 2.4583 26.9781 2.28676 26.4586V25.3329ZM9.92356 30.745C5.29023 30.745 2.50136 29.7493 2.28676 29.273V28.0607C4.13146 28.9701 7.60686 29.273 9.92356 29.273C12.2403 29.273 15.7157 28.9698 17.5604 28.0607V29.2298C17.3461 29.7924 14.5572 30.745 9.92356 30.745ZM31.5898 28.7101C28.5866 28.7101 25.8408 27.0215 24.4677 24.2938L23.9099 24.597L24.4677 24.2938C23.953 23.298 23.6525 22.2156 23.6097 21.0465V20.8735V20.5702C23.6097 19.531 23.7812 18.5353 24.1676 17.5827C25.0687 15.288 26.9993 13.5127 29.3159 12.8199C30.088 12.6034 30.8604 12.4735 31.6325 12.4735C36.0516 12.4735 39.6554 16.1103 39.6554 20.57C39.6557 25.0298 36.0088 28.7105 31.5896 28.7105L31.5898 28.7101Z"/>
</mask>
<path d="M33.4348 20.6134C33.0488 20.4404 32.5768 20.3102 31.9762 20.1371V17.1931C32.6196 17.2363 33.2202 17.323 33.7781 17.5395C33.864 17.5827 33.9068 17.5827 33.9927 17.5827C34.1214 17.5827 34.2501 17.5395 34.336 17.4097C34.4219 17.323 34.4646 17.1931 34.4646 17.0633C34.4646 16.8035 34.336 16.6302 34.1214 16.587C33.5208 16.3273 32.7915 16.1974 31.9762 16.1974V15.3315C31.9762 15.2449 31.9334 15.115 31.8475 15.0718C31.7616 14.9851 31.676 14.9419 31.5902 14.9419C31.5043 14.9419 31.3756 14.9851 31.3328 15.0718C31.2469 15.1585 31.2469 15.2449 31.2469 15.3315V16.1974C30.6463 16.2406 30.1743 16.3704 29.7451 16.6305C29.316 16.8902 29.0158 17.1499 28.8012 17.5399C28.5867 17.8863 28.5008 18.319 28.5008 18.7089C28.5008 19.1852 28.6295 19.6183 28.8868 19.9212C29.1442 20.2245 29.4447 20.4842 29.8307 20.6572C30.2168 20.8303 30.6887 21.0037 31.2465 21.1335V23.9912C30.5172 23.948 29.8307 23.7746 29.1442 23.5149C29.0583 23.4717 28.9727 23.4717 28.9296 23.4717C28.8009 23.4717 28.6722 23.5149 28.5863 23.6448C28.5004 23.7314 28.4576 23.8613 28.4576 23.9912C28.4576 24.0779 28.5004 24.2077 28.5435 24.2944C28.6294 24.3811 28.6722 24.4675 28.8009 24.5109C29.573 24.8574 30.3883 25.0304 31.2893 25.0739V25.9397C31.2893 26.0696 31.3321 26.1563 31.3752 26.1995C31.4611 26.2862 31.5467 26.2862 31.6326 26.2862C31.7613 26.2862 31.8472 26.243 31.8899 26.1995C31.9758 26.1128 31.9758 26.0264 31.9758 25.9397V25.0739C32.5337 25.0307 33.0484 24.9008 33.4776 24.7275C33.9068 24.5109 34.2497 24.2512 34.4643 23.8616C34.6789 23.5152 34.8076 23.1256 34.8076 22.6925C34.8076 22.1731 34.6789 21.74 34.4215 21.3936C34.1641 21.0463 33.8209 20.7865 33.4348 20.6135V20.6134ZM31.2038 19.9638C30.689 19.8339 30.2599 19.6606 30.0025 19.4443C29.7451 19.2278 29.5733 18.968 29.5733 18.6216C29.5733 18.232 29.702 17.9288 30.0025 17.7122C30.3029 17.4957 30.689 17.3226 31.1609 17.2791V19.9638L31.2038 19.9638ZM31.9762 23.9905V21.3062C32.534 21.4793 32.9629 21.6094 33.2634 21.8257C33.5638 21.9987 33.6925 22.2588 33.6925 22.5617C33.6922 23.4275 33.1344 23.9038 31.9762 23.9905L31.9762 23.9905ZM31.5898 11.218C30.9464 11.218 30.3458 11.3047 29.7451 11.3911V11.3044V8.10064H29.7023C29.7451 7.97077 29.7451 7.8409 29.7451 7.71104V4.4638C29.7451 1.73604 22.1083 1 18.0754 1C14.0425 1 6.4057 1.736 6.4057 4.4638V7.71104C6.4057 7.8409 6.4485 7.97077 6.4485 8.10064H6.4057V11.3479C6.4057 11.4777 6.4485 11.6076 6.4485 11.7375H6.4057V14.9847C6.4057 15.1146 6.4485 15.2444 6.4485 15.3743H6.4057V18.6216C6.4057 18.7082 6.4057 18.7514 6.4485 18.8381C4.21775 19.0546 1 19.704 1 21.3493V23.7738C1 23.8605 1 23.9904 1.0428 24.077L1 24.0767V26.5013C1 26.588 1 26.7178 1.0428 26.8045H1V29.229C1 31.3938 6.62026 32 9.9239 32C13.2275 32 18.8478 31.4371 18.8478 29.229V26.8045H18.805C18.8478 26.7178 18.8478 26.588 18.8478 26.5013V25.6354C20.4782 25.5922 22.1084 25.5056 23.5242 25.289C25.1974 28.1899 28.2437 29.965 31.5471 29.965C36.6954 29.965 40.8571 25.7653 40.8571 20.5697C40.8571 15.3742 36.7383 11.2176 31.59 11.2176L31.5898 11.218ZM18.0753 2.29897C24.8968 2.29897 28.4579 3.8145 28.4579 4.46379C28.4579 5.11312 24.9396 6.62862 18.0753 6.62862C11.2106 6.62862 7.69265 5.11308 7.69265 4.46379C7.69265 3.81447 11.2536 2.29897 18.0753 2.29897V2.29897ZM7.73555 6.15236C10.0953 7.49447 15.1149 7.88406 18.1182 7.88406C21.1213 7.88406 26.1411 7.49446 28.5008 6.15236V7.66789C28.5008 8.31721 24.9825 9.83271 18.1182 9.83271C11.2535 9.83271 7.73555 8.31718 7.73555 7.66789V6.15236ZM7.73555 9.3996C10.0953 10.7417 15.1149 11.1313 18.1182 11.1313C21.1213 11.1313 26.1411 10.7417 28.5008 9.3996V11.3479C28.5008 11.9972 24.9825 13.5127 18.1182 13.5127C11.2535 13.5127 7.73555 11.9972 7.73555 11.3479V9.3996ZM7.73555 13.0367C10.0953 14.3788 15.1149 14.7684 18.1182 14.7684C19.9629 14.7684 22.58 14.5954 24.8541 14.2055C24.1248 14.9847 23.567 15.8508 23.1382 16.8034C21.5936 17.02 19.8776 17.1067 18.1185 17.1067C11.2969 17.1067 7.73586 15.5911 7.73586 14.9418L7.73555 13.0367ZM18.8475 24.1206C18.8903 24.034 18.8903 23.9041 18.8903 23.8174V22.0422C20.0916 22.0422 21.2928 21.9555 22.4085 21.8256C22.4944 22.6048 22.709 23.3843 22.9664 24.0771C21.6792 24.2502 20.3064 24.3369 18.8906 24.3804L18.8475 24.1206ZM7.73555 16.6736C10.0953 18.0158 15.1149 18.4054 18.1182 18.4054C19.7055 18.4054 21.2072 18.3187 22.6658 18.1456C22.4513 18.9248 22.3226 19.7043 22.3226 20.527C21.1641 20.6569 19.9628 20.7001 18.7188 20.7435C17.7321 19.0982 12.9267 18.6219 9.96649 18.6219C9.23717 18.6219 8.50785 18.6651 7.77849 18.7086C7.7357 18.6654 7.7357 18.6219 7.7357 18.6219L7.73555 16.6736ZM7.13492 20.0508H7.26361C7.3495 20.0508 7.43509 20.0508 7.52098 20.0076C8.29309 19.9644 9.10833 19.9209 9.92349 19.9209C14.5143 19.9209 17.3029 20.8734 17.5603 21.3497C17.3029 21.8692 14.514 22.8217 9.92349 22.8217C9.32286 22.8217 8.7222 22.8217 8.12155 22.7785C4.30315 22.562 2.45816 21.7393 2.2867 21.3929C2.45848 21.0899 3.83122 20.3537 7.13485 20.0508L7.13492 20.0508ZM2.28676 22.9084C4.00275 23.7743 6.92033 23.9908 8.07887 24.0775C8.7223 24.1207 9.32291 24.1207 9.92356 24.1207C12.2402 24.1207 15.7157 23.8175 17.5604 22.9084V23.7742C17.5604 23.8174 17.3458 24.0775 16.4878 24.3804C14.986 24.8998 12.5407 25.2462 9.92356 25.2462C5.29 25.2462 2.4583 24.2937 2.28676 23.7742V22.9084ZM2.28676 25.3329C4.13146 26.2423 7.60686 26.5452 9.92356 26.5452C12.6694 26.5452 15.1578 26.1988 16.7883 25.6359H17.5604V26.4586C17.3458 26.978 14.5572 27.9306 9.92356 27.9306C5.28992 27.9306 2.4583 26.9781 2.28676 26.4586V25.3329ZM9.92356 30.745C5.29023 30.745 2.50136 29.7493 2.28676 29.273V28.0607C4.13146 28.9701 7.60686 29.273 9.92356 29.273C12.2403 29.273 15.7157 28.9698 17.5604 28.0607V29.2298C17.3461 29.7924 14.5572 30.745 9.92356 30.745ZM31.5898 28.7101C28.5866 28.7101 25.8408 27.0215 24.4677 24.2938L23.9099 24.597L24.4677 24.2938C23.953 23.298 23.6525 22.2156 23.6097 21.0465V20.8735V20.5702C23.6097 19.531 23.7812 18.5353 24.1676 17.5827C25.0687 15.288 26.9993 13.5127 29.3159 12.8199C30.088 12.6034 30.8604 12.4735 31.6325 12.4735C36.0516 12.4735 39.6554 16.1103 39.6554 20.57C39.6557 25.0298 36.0088 28.7105 31.5896 28.7105L31.5898 28.7101Z" fill="#5B3F91"/>
<path d="M33.4348 20.6134C33.0488 20.4404 32.5768 20.3102 31.9762 20.1371V17.1931C32.6196 17.2363 33.2202 17.323 33.7781 17.5395C33.864 17.5827 33.9068 17.5827 33.9927 17.5827C34.1214 17.5827 34.2501 17.5395 34.336 17.4097C34.4219 17.323 34.4646 17.1931 34.4646 17.0633C34.4646 16.8035 34.336 16.6302 34.1214 16.587C33.5208 16.3273 32.7915 16.1974 31.9762 16.1974V15.3315C31.9762 15.2449 31.9334 15.115 31.8475 15.0718C31.7616 14.9851 31.676 14.9419 31.5902 14.9419C31.5043 14.9419 31.3756 14.9851 31.3328 15.0718C31.2469 15.1585 31.2469 15.2449 31.2469 15.3315V16.1974C30.6463 16.2406 30.1743 16.3704 29.7451 16.6305C29.316 16.8902 29.0158 17.1499 28.8012 17.5399C28.5867 17.8863 28.5008 18.319 28.5008 18.7089C28.5008 19.1852 28.6295 19.6183 28.8868 19.9212C29.1442 20.2245 29.4447 20.4842 29.8307 20.6572C30.2168 20.8303 30.6887 21.0037 31.2465 21.1335V23.9912C30.5172 23.948 29.8307 23.7746 29.1442 23.5149C29.0583 23.4717 28.9727 23.4717 28.9296 23.4717C28.8009 23.4717 28.6722 23.5149 28.5863 23.6448C28.5004 23.7314 28.4576 23.8613 28.4576 23.9912C28.4576 24.0779 28.5004 24.2077 28.5435 24.2944C28.6294 24.3811 28.6722 24.4675 28.8009 24.5109C29.573 24.8574 30.3883 25.0304 31.2893 25.0739V25.9397C31.2893 26.0696 31.3321 26.1563 31.3752 26.1995C31.4611 26.2862 31.5467 26.2862 31.6326 26.2862C31.7613 26.2862 31.8472 26.243 31.8899 26.1995C31.9758 26.1128 31.9758 26.0264 31.9758 25.9397V25.0739C32.5337 25.0307 33.0484 24.9008 33.4776 24.7275C33.9068 24.5109 34.2497 24.2512 34.4643 23.8616C34.6789 23.5152 34.8076 23.1256 34.8076 22.6925C34.8076 22.1731 34.6789 21.74 34.4215 21.3936C34.1641 21.0463 33.8209 20.7865 33.4348 20.6135V20.6134ZM31.2038 19.9638C30.689 19.8339 30.2599 19.6606 30.0025 19.4443C29.7451 19.2278 29.5733 18.968 29.5733 18.6216C29.5733 18.232 29.702 17.9288 30.0025 17.7122C30.3029 17.4957 30.689 17.3226 31.1609 17.2791V19.9638L31.2038 19.9638ZM31.9762 23.9905V21.3062C32.534 21.4793 32.9629 21.6094 33.2634 21.8257C33.5638 21.9987 33.6925 22.2588 33.6925 22.5617C33.6922 23.4275 33.1344 23.9038 31.9762 23.9905L31.9762 23.9905ZM31.5898 11.218C30.9464 11.218 30.3458 11.3047 29.7451 11.3911V11.3044V8.10064H29.7023C29.7451 7.97077 29.7451 7.8409 29.7451 7.71104V4.4638C29.7451 1.73604 22.1083 1 18.0754 1C14.0425 1 6.4057 1.736 6.4057 4.4638V7.71104C6.4057 7.8409 6.4485 7.97077 6.4485 8.10064H6.4057V11.3479C6.4057 11.4777 6.4485 11.6076 6.4485 11.7375H6.4057V14.9847C6.4057 15.1146 6.4485 15.2444 6.4485 15.3743H6.4057V18.6216C6.4057 18.7082 6.4057 18.7514 6.4485 18.8381C4.21775 19.0546 1 19.704 1 21.3493V23.7738C1 23.8605 1 23.9904 1.0428 24.077L1 24.0767V26.5013C1 26.588 1 26.7178 1.0428 26.8045H1V29.229C1 31.3938 6.62026 32 9.9239 32C13.2275 32 18.8478 31.4371 18.8478 29.229V26.8045H18.805C18.8478 26.7178 18.8478 26.588 18.8478 26.5013V25.6354C20.4782 25.5922 22.1084 25.5056 23.5242 25.289C25.1974 28.1899 28.2437 29.965 31.5471 29.965C36.6954 29.965 40.8571 25.7653 40.8571 20.5697C40.8571 15.3742 36.7383 11.2176 31.59 11.2176L31.5898 11.218ZM18.0753 2.29897C24.8968 2.29897 28.4579 3.8145 28.4579 4.46379C28.4579 5.11312 24.9396 6.62862 18.0753 6.62862C11.2106 6.62862 7.69265 5.11308 7.69265 4.46379C7.69265 3.81447 11.2536 2.29897 18.0753 2.29897V2.29897ZM7.73555 6.15236C10.0953 7.49447 15.1149 7.88406 18.1182 7.88406C21.1213 7.88406 26.1411 7.49446 28.5008 6.15236V7.66789C28.5008 8.31721 24.9825 9.83271 18.1182 9.83271C11.2535 9.83271 7.73555 8.31718 7.73555 7.66789V6.15236ZM7.73555 9.3996C10.0953 10.7417 15.1149 11.1313 18.1182 11.1313C21.1213 11.1313 26.1411 10.7417 28.5008 9.3996V11.3479C28.5008 11.9972 24.9825 13.5127 18.1182 13.5127C11.2535 13.5127 7.73555 11.9972 7.73555 11.3479V9.3996ZM7.73555 13.0367C10.0953 14.3788 15.1149 14.7684 18.1182 14.7684C19.9629 14.7684 22.58 14.5954 24.8541 14.2055C24.1248 14.9847 23.567 15.8508 23.1382 16.8034C21.5936 17.02 19.8776 17.1067 18.1185 17.1067C11.2969 17.1067 7.73586 15.5911 7.73586 14.9418L7.73555 13.0367ZM18.8475 24.1206C18.8903 24.034 18.8903 23.9041 18.8903 23.8174V22.0422C20.0916 22.0422 21.2928 21.9555 22.4085 21.8256C22.4944 22.6048 22.709 23.3843 22.9664 24.0771C21.6792 24.2502 20.3064 24.3369 18.8906 24.3804L18.8475 24.1206ZM7.73555 16.6736C10.0953 18.0158 15.1149 18.4054 18.1182 18.4054C19.7055 18.4054 21.2072 18.3187 22.6658 18.1456C22.4513 18.9248 22.3226 19.7043 22.3226 20.527C21.1641 20.6569 19.9628 20.7001 18.7188 20.7435C17.7321 19.0982 12.9267 18.6219 9.96649 18.6219C9.23717 18.6219 8.50785 18.6651 7.77849 18.7086C7.7357 18.6654 7.7357 18.6219 7.7357 18.6219L7.73555 16.6736ZM7.13492 20.0508H7.26361C7.3495 20.0508 7.43509 20.0508 7.52098 20.0076C8.29309 19.9644 9.10833 19.9209 9.92349 19.9209C14.5143 19.9209 17.3029 20.8734 17.5603 21.3497C17.3029 21.8692 14.514 22.8217 9.92349 22.8217C9.32286 22.8217 8.7222 22.8217 8.12155 22.7785C4.30315 22.562 2.45816 21.7393 2.2867 21.3929C2.45848 21.0899 3.83122 20.3537 7.13485 20.0508L7.13492 20.0508ZM2.28676 22.9084C4.00275 23.7743 6.92033 23.9908 8.07887 24.0775C8.7223 24.1207 9.32291 24.1207 9.92356 24.1207C12.2402 24.1207 15.7157 23.8175 17.5604 22.9084V23.7742C17.5604 23.8174 17.3458 24.0775 16.4878 24.3804C14.986 24.8998 12.5407 25.2462 9.92356 25.2462C5.29 25.2462 2.4583 24.2937 2.28676 23.7742V22.9084ZM2.28676 25.3329C4.13146 26.2423 7.60686 26.5452 9.92356 26.5452C12.6694 26.5452 15.1578 26.1988 16.7883 25.6359H17.5604V26.4586C17.3458 26.978 14.5572 27.9306 9.92356 27.9306C5.28992 27.9306 2.4583 26.9781 2.28676 26.4586V25.3329ZM9.92356 30.745C5.29023 30.745 2.50136 29.7493 2.28676 29.273V28.0607C4.13146 28.9701 7.60686 29.273 9.92356 29.273C12.2403 29.273 15.7157 28.9698 17.5604 28.0607V29.2298C17.3461 29.7924 14.5572 30.745 9.92356 30.745ZM31.5898 28.7101C28.5866 28.7101 25.8408 27.0215 24.4677 24.2938L23.9099 24.597L24.4677 24.2938C23.953 23.298 23.6525 22.2156 23.6097 21.0465V20.8735V20.5702C23.6097 19.531 23.7812 18.5353 24.1676 17.5827C25.0687 15.288 26.9993 13.5127 29.3159 12.8199C30.088 12.6034 30.8604 12.4735 31.6325 12.4735C36.0516 12.4735 39.6554 16.1103 39.6554 20.57C39.6557 25.0298 36.0088 28.7105 31.5896 28.7105L31.5898 28.7101Z" stroke="#5B3F91" stroke-width="0.2" mask="url(#path-1-outside-1_1169_6594)"/>
</svg>
