<svg width="27" height="26" viewBox="0 0 27 26" fill="none" xmlns="http://www.w3.org/2000/svg">
<path d="M3.94153 16.1621H3.375C1.51104 16.1621 0 17.6302 0 19.4414V22.7207C0 24.5318 1.51104 25.9999 3.375 25.9999H23.625C25.489 25.9999 27 24.5318 27 22.7207V19.4414C27 18.557 25.6154 17.2162 25.6154 17.2162V18.9729C25.6154 18.9729 25.6154 19.1964 25.6154 19.3243V22.8378C25.6154 23.7434 24.6044 24.5945 23.6724 24.5945H3.46154C2.52957 24.5945 1.38462 23.7434 1.38462 22.8378V19.3243C1.38462 18.4187 2.52957 17.5675 3.46154 17.5675H5.53846L3.94153 16.1621Z" fill="#5B3F91"/>
<path d="M20.192 12.8852L20.1967 12.8796C20.3961 12.6452 20.6874 12.505 21 12.505C21.2968 12.505 21.583 12.6211 21.7925 12.8673L21.7993 12.8753L21.7992 12.8754L21.8191 12.9001L21.8199 12.9011L21.8267 12.9095C21.8835 12.9799 22.001 13.1255 22.0674 13.2139L22.0675 13.2139C22.2164 13.4122 22.4163 13.6931 22.6178 14.0232C22.9883 14.6299 23.495 15.6079 23.495 16.6C23.495 17.3038 23.2729 18.0127 22.8537 18.5562C22.4288 19.1072 21.7919 19.495 21 19.495C20.2081 19.495 19.5712 19.1072 19.1462 18.5562C18.7271 18.0127 18.505 17.3038 18.505 16.6C18.505 15.608 19.0116 14.6301 19.3821 14.0234L20.192 12.8852ZM20.192 12.8852L20.1875 12.8908M20.192 12.8852L20.1875 12.8908M20.1875 12.8908L20.1842 12.8949L20.1836 12.8957L20.1805 12.8995C20.1331 12.9584 20.0061 13.1162 19.9327 13.2137L19.9325 13.2139M20.1875 12.8908L19.9325 13.2139M19.9325 13.2139C19.7836 13.4122 19.5837 13.6931 19.3822 14.0232L19.9325 13.2139Z" stroke="#5B3F91" stroke-width="0.99"/>
<rect x="0.00331423" y="0.943482" width="9.70531" height="11.7" rx="2.35" transform="matrix(0.690494 0.723338 -0.685395 0.728172 13.01 2.30583)" stroke="#5B3F91" stroke-width="1.3"/>
<line x1="12.233" y1="0.65" x2="12.233" y2="7.55794" stroke="#5B3F91" stroke-width="1.3" stroke-linecap="round"/>
</svg>
