<svg xmlns="http://www.w3.org/2000/svg" width="34.175" height="33.538" viewBox="0 0 34.175 33.538">
  <g id="Group_1569" data-name="Group 1569" transform="translate(-1379.618 -112.826)">
    <path id="Path_187" data-name="Path 187" d="M11.526,3.783H5.035L7.052,2.27A1.261,1.261,0,0,0,5.539.252L.5,4.035a1.261,1.261,0,0,0,0,2L5.363,9.822A1.262,1.262,0,0,0,6.914,7.83L4.934,6.3h6.592a1.261,1.261,0,0,0,0-2.522Z" transform="translate(1395.792 137.322) rotate(135)" fill="#312638"/>
    <path id="Path_190" data-name="Path 190" d="M11.526,6.3H5.035L7.052,7.817A1.261,1.261,0,1,1,5.539,9.834L.5,6.052a1.261,1.261,0,0,1,0-2L5.363.265A1.262,1.262,0,0,1,6.913,2.257L4.934,3.782h6.592a1.261,1.261,0,0,1,0,2.522Z" transform="translate(1388.661 129) rotate(-135)" fill="#312638"/>
    <path id="Path_188" data-name="Path 188" d="M11.526,6.3H5.035L7.052,7.817A1.261,1.261,0,0,1,5.539,9.834L.5,6.052a1.261,1.261,0,0,1,0-2L5.363.265A1.262,1.262,0,0,1,6.914,2.257L4.934,3.782h6.592a1.261,1.261,0,0,1,0,2.522Z" transform="translate(1404.752 130.189) rotate(45)" fill="#312638"/>
    <path id="Path_189" data-name="Path 189" d="M11.526,3.782H5.035L7.052,2.27A1.261,1.261,0,1,0,5.539.252L.5,4.035a1.261,1.261,0,0,0,0,2L5.363,9.822A1.262,1.262,0,0,0,6.913,7.83L4.934,6.3h6.592a1.261,1.261,0,0,0,0-2.522Z" transform="translate(1397.618 121.867) rotate(-45)" fill="#312638"/>
  </g>
</svg>
