<svg width="23" height="23" viewBox="0 0 23 23" fill="none" xmlns="http://www.w3.org/2000/svg">
<path d="M12.0078 10.4922V2.57031C12.9766 2.72656 13.8984 3.08594 14.7734 3.64844C15.6641 4.19531 16.4688 4.85937 17.1875 5.64062C17.9062 6.40625 18.4922 7.22656 18.9453 8.10156C19.4141 8.96094 19.7266 9.75781 19.8828 10.4922H12.0078ZM12.125 0.578125C11.5156 0.5 11.0078 0.671875 10.6016 1.09375C10.1953 1.5 9.99219 1.96875 9.99219 2.5V10.4922C9.99219 11.0547 10.1875 11.5312 10.5781 11.9219C10.9688 12.3125 11.4453 12.5078 12.0078 12.5078H20C20.5312 12.5078 21.0078 12.3047 21.4297 11.8984C21.8516 11.4922 22.0078 10.9688 21.8984 10.3281C21.7109 9.34375 21.3359 8.32031 20.7734 7.25781C20.2109 6.19531 19.5078 5.20313 18.6641 4.28125C18.2578 3.82812 17.8047 3.39844 17.3047 2.99219C16.8203 2.57031 16.2969 2.20313 15.7344 1.89062C15.1875 1.5625 14.6172 1.28125 14.0234 1.04688C13.4141 0.828125 12.7812 0.671875 12.125 0.578125ZM7.41406 2.75781C7.66406 2.64844 7.83594 2.46094 7.92969 2.19531C8.02344 1.92969 8.01562 1.67187 7.90625 1.42188C7.79688 1.17188 7.60938 1 7.34375 0.90625C7.09375 0.8125 6.84375 0.820313 6.59375 0.929688C5.60938 1.38281 4.71875 1.96094 3.92188 2.66406C3.10938 3.35156 2.41406 4.14062 1.83594 5.03125C1.25781 5.92188 0.804688 6.89063 0.476562 7.9375C0.164062 8.98438 0.0078125 10.0781 0.0078125 11.2188C0.0078125 12.7656 0.304688 14.2266 0.898438 15.6016C1.47656 16.9766 2.27344 18.1797 3.28906 19.2109C4.32031 20.2266 5.52344 21.0234 6.89844 21.6016C8.27344 22.1953 9.73438 22.4922 11.2812 22.4922C12.4219 22.4922 13.5156 22.3359 14.5625 22.0234C15.6094 21.6953 16.5781 21.2422 17.4688 20.6641C18.3594 20.0859 19.1484 19.3906 19.8359 18.5781C20.5391 17.7812 21.1172 16.8906 21.5703 15.9062C21.6797 15.6562 21.6875 15.4062 21.5938 15.1562C21.5 14.8906 21.3281 14.7031 21.0781 14.5938C20.8281 14.4844 20.5703 14.4766 20.3047 14.5703C20.0391 14.6641 19.8516 14.8359 19.7422 15.0859C19.3672 15.8828 18.8984 16.6172 18.3359 17.2891C17.7578 17.9453 17.1016 18.5156 16.3672 19C15.6328 19.4688 14.8359 19.8359 13.9766 20.1016C13.1172 20.3672 12.2188 20.5 11.2812 20.5C10 20.5 8.79688 20.2578 7.67188 19.7734C6.54688 19.2891 5.5625 18.625 4.71875 17.7812C3.875 16.9375 3.21094 15.9531 2.72656 14.8281C2.24219 13.7031 2 12.5 2 11.2188C2 10.2812 2.13281 9.38281 2.39844 8.52344C2.66406 7.66406 3.03125 6.86719 3.5 6.13281C3.98438 5.39844 4.55469 4.74219 5.21094 4.16406C5.88281 3.60156 6.61719 3.13281 7.41406 2.75781Z" fill="white"/>
</svg>
