<svg width="25" height="25" viewBox="0 0 25 25" fill="none" xmlns="http://www.w3.org/2000/svg">
<path d="M11.7343 17.1382L7.20712 12.6121C7.25253 12.5109 7.30687 12.3916 7.36971 12.2566C7.58546 11.7934 7.90053 11.1479 8.29659 10.4216C9.0943 8.95871 10.1982 7.20963 11.4574 5.9508C14.7063 2.70259 17.5624 1.38208 19.7065 0.90089C21.5021 0.497924 22.8287 0.676823 23.5074 0.838562C23.6669 1.52055 23.8453 2.84772 23.4437 4.64205C22.9639 6.78559 21.6461 9.64083 18.3974 12.8888C17.1383 14.1477 15.3888 15.2514 13.9255 16.0489C13.199 16.4449 12.5534 16.7599 12.0901 16.9756C11.955 17.0385 11.8356 17.0928 11.7343 17.1382ZM8.2992 19.1098V19.1113C8.2992 19.958 7.9528 20.7237 7.39978 21.2766C7.1402 21.5361 6.60135 21.8243 5.83708 22.1056C5.09715 22.3779 4.2291 22.6148 3.39109 22.8102C2.55552 23.0051 1.76266 23.1558 1.17787 23.2579C1.13995 23.2645 1.10292 23.2709 1.06682 23.2771C1.07302 23.2411 1.07942 23.2041 1.08603 23.1663C1.18811 22.5816 1.33885 21.7889 1.53376 20.9536C1.72925 20.1158 1.9662 19.2479 2.23857 18.5082C2.51989 17.7441 2.80814 17.2054 3.0677 16.9459L3.06885 16.9448C3.49666 16.5148 4.04263 16.2216 4.63745 16.1025C5.23227 15.9834 5.84909 16.0436 6.40957 16.2757C6.97005 16.5077 7.4489 16.901 7.78534 17.4056C8.12178 17.9102 8.30063 18.5034 8.2992 19.1098ZM6.43624 4.8829L8.00221 5.19207C6.25198 7.41727 4.96985 10.0459 4.44274 11.2088L1.40821 9.90978L6.43624 4.8829ZM14.4372 22.936L13.1379 19.9022C14.3012 19.3752 16.9305 18.0933 19.1562 16.3434L19.4654 17.9089L14.4372 22.936ZM16.3051 4.95761C14.6069 4.95761 13.2198 6.34418 13.2198 8.04236C13.2198 9.74054 14.6069 11.1271 16.3051 11.1271C18.0034 11.1271 19.3905 9.74054 19.3905 8.04236C19.3905 6.34418 18.0034 4.95761 16.3051 4.95761Z" stroke="#5B3F91" stroke-width="1.25"/>
</svg>
