<svg width="217" height="217" viewBox="0 0 217 217" fill="none" xmlns="http://www.w3.org/2000/svg">
<path fill-rule="evenodd" clip-rule="evenodd" d="M108.695 0.425781C168.286 0.425781 216.61 48.7335 216.61 108.341C216.61 167.932 168.302 216.256 108.695 216.256C49.1033 216.256 0.779663 167.948 0.779663 108.341C0.779663 48.7494 49.0874 0.425781 108.695 0.425781ZM60.1638 139.469C60.1638 134.198 64.4321 129.929 69.7035 129.929C74.9745 129.929 79.2432 134.198 79.2432 139.469C79.2432 145.022 82.2272 150.189 87.0553 154.046C90.3621 156.69 94.5 158.726 99.1663 159.907V117.094C89.9809 115.559 81.6947 111.85 75.2115 106.669C65.9232 99.2552 60.1776 88.8439 60.1776 77.1927C60.1776 65.5555 65.9225 55.1438 75.2115 47.7165C81.6947 42.5313 89.9809 38.8264 99.1663 37.2915V30.75C99.1663 25.479 103.435 21.2103 108.706 21.2103C113.977 21.2103 118.246 25.4786 118.246 30.75V37.2915C127.431 38.8265 135.717 42.535 142.2 47.7165C151.489 55.1302 157.251 65.5414 157.251 77.1927C157.251 82.4637 152.983 86.7324 147.711 86.7324C142.44 86.7324 138.172 82.4641 138.172 77.1927C138.172 71.6401 135.188 66.4724 130.373 62.6299C127.066 59.9721 122.929 57.9496 118.262 56.7683V99.5959C127.448 101.131 135.734 104.839 142.217 110.021C151.505 117.435 157.268 127.846 157.268 139.497C157.268 151.134 151.523 161.546 142.217 168.973C135.734 174.158 127.448 177.863 118.262 179.398V185.94C118.262 191.211 113.994 195.48 108.723 195.48C103.451 195.48 99.1829 191.211 99.1829 185.94V179.398C89.9974 177.863 81.7113 174.155 75.2281 168.973C65.9398 161.56 60.1942 151.148 60.1942 139.497L60.1638 139.469ZM118.235 159.893C122.901 158.712 127.036 156.672 130.346 154.032C135.16 150.175 138.144 145.007 138.144 139.455C138.144 133.902 135.16 128.735 130.346 124.878C127.039 122.234 122.901 120.198 118.235 119.016V159.893ZM99.1525 56.7516C94.4858 57.9329 90.3512 59.9726 87.0415 62.6132C82.2271 66.4695 79.2294 71.6238 79.2294 77.176C79.2294 82.7282 82.2134 87.8963 87.0415 91.7528C90.3483 94.3969 94.4862 96.4332 99.1525 97.6145V56.7516Z" fill="url(#paint0_linear_62_2657)" fill-opacity="0.3"/>
<defs>
<linearGradient id="paint0_linear_62_2657" x1="116.233" y1="-52.9257" x2="116.233" y2="419.34" gradientUnits="userSpaceOnUse">
<stop offset="0.104167" stop-color="white"/>
<stop offset="0.484375" stop-color="#EA6300"/>
</linearGradient>
</defs>
</svg>
