<svg width="174" height="175" viewBox="0 0 174 175" fill="none" xmlns="http://www.w3.org/2000/svg">
<path d="M46.8024 112.283V112.719L46.8301 112.745C46.9718 122.321 51.7399 130.831 59.2973 136.885C64.4554 141.022 70.9775 144.014 78.1952 145.36V149.803C78.1952 154.608 82.0737 158.505 86.8704 158.505C91.6671 158.505 95.5455 154.608 95.5455 149.803V145.36C102.763 144.014 109.286 141.025 114.444 136.884C122.13 130.728 126.927 122.049 126.927 112.305C126.927 102.549 122.115 93.8713 114.443 87.726C109.285 83.589 102.763 80.5973 95.5455 79.251V46.827C98.6617 47.7735 101.419 49.2126 103.662 51.0216L103.664 51.0238C107.363 53.9859 109.564 57.8929 109.564 62.0012C109.564 66.8062 113.442 70.7035 118.239 70.7035C123.035 70.7035 126.914 66.8059 126.914 62.0012C126.914 52.245 122.102 43.567 114.43 37.4217C109.272 33.2848 102.75 30.293 95.5321 28.9467V24.5035C95.5321 19.6985 91.6537 15.8012 86.857 15.8012C82.0603 15.8012 78.1818 19.6988 78.1818 24.5035V28.9467C70.9642 30.2927 64.4418 33.2819 59.2832 37.4222C51.6108 43.5787 46.8135 52.257 46.8135 62.0012C46.8135 71.7564 51.6111 80.4347 59.2839 86.5806C64.4421 90.7176 70.9642 93.7093 78.1818 95.0556V127.468C75.0669 126.52 72.3087 125.073 70.0638 123.272L70.0634 123.272C66.3534 120.298 64.1528 116.391 64.1528 112.283C64.1528 107.478 60.274 103.58 55.4776 103.58C50.6809 103.58 46.8024 107.478 46.8024 112.283ZM86.848 1.0199C134.237 1.0199 172.671 39.5724 172.671 87.1501C172.671 134.715 134.249 173.28 86.848 173.28C39.4592 173.28 1.02502 134.728 1.02502 87.1501C1.02502 39.585 39.4467 1.0199 86.848 1.0199ZM70.0527 72.977L70.0523 72.9767C66.3423 70.0027 64.1416 66.0952 64.1416 61.9877C64.1416 57.8825 66.351 53.9858 70.052 51.0103C72.2997 49.2106 75.0566 47.7623 78.1707 46.814V77.1728C75.0558 76.2248 72.2976 74.7783 70.0527 72.977ZM109.541 112.271C109.541 116.379 107.341 120.286 103.642 123.26C101.394 125.06 98.6374 126.508 95.5232 127.456V97.0863C98.6378 98.0342 101.396 99.4805 103.641 101.282C107.34 104.256 109.541 108.163 109.541 112.271Z" stroke="#5B3F91" stroke-opacity="0.09" stroke-width="2"/>
</svg>
