<svg xmlns="http://www.w3.org/2000/svg" width="23.13" height="27" viewBox="0 0 23.13 27">
  <g id="Group_1577" data-name="Group 1577" transform="translate(-1371.5 -118.763)" opacity="0.38">
    <g id="Polygon_2" data-name="Polygon 2" transform="translate(1373.086 135.217)" fill="none">
      <path d="M9.253.768a1,1,0,0,1,1.453,0l7.656,8.091a1,1,0,0,1-.726,1.687H2.323A1,1,0,0,1,1.6,8.858Z" stroke="none"/>
      <path d="M 9.979343414306641 1.454893112182617 L 2.323055267333984 9.545721054077148 C 2.323057174682617 9.545722007751465 2.323057174682617 9.545722961425781 2.323053359985352 9.545723915100098 L 17.63562965393066 9.545733451843262 C 17.63562965393066 9.545730590820312 17.6356315612793 9.545726776123047 17.63563346862793 9.545723915100098 L 9.980483055114746 1.45499324798584 C 9.980363845825195 1.454963684082031 9.97994327545166 1.454893112182617 9.979343414306641 1.454893112182617 M 9.979343414306641 0.4548959732055664 C 10.24388885498047 0.4548959732055664 10.50843334197998 0.5591182708740234 10.70568370819092 0.7675638198852539 L 18.36197280883789 8.858393669128418 C 18.96522331237793 9.495883941650391 18.5132942199707 10.54573345184326 17.63563346862793 10.54573345184326 L 2.323053359985352 10.5457239151001 C 1.445392608642578 10.54573345184326 0.9934635162353516 9.495883941650391 1.596714019775391 8.858393669128418 L 9.253003120422363 0.7675638198852539 C 9.450253486633301 0.5591182708740234 9.714797973632812 0.4548959732055664 9.979343414306641 0.4548959732055664 Z" stroke="none" fill="#312638"/>
    </g>
    <path id="Polygon_4" data-name="Polygon 4" d="M9.253.768a1,1,0,0,1,1.453,0l7.656,8.091a1,1,0,0,1-.726,1.687H2.323A1,1,0,0,1,1.6,8.858Z" transform="translate(1393.045 129.308) rotate(180)" fill="#312638"/>
    <line id="Line_45" data-name="Line 45" y2="21.13" transform="translate(1372.5 132.263) rotate(-90)" fill="none" stroke="#312638" stroke-linecap="round" stroke-width="2"/>
  </g>
</svg>
