<?xml version="1.0" encoding="utf-8"?>
<!-- Generator: Adobe Illustrator 26.2.1, SVG Export Plug-In . SVG Version: 6.00 Build 0)  -->
<svg version="1.1" id="Layer_1" xmlns="http://www.w3.org/2000/svg" xmlns:xlink="http://www.w3.org/1999/xlink" x="0px" y="0px"
	 viewBox="0 0 317 348" style="enable-background:new 0 0 317 348;" xml:space="preserve">
<style type="text/css">
	.st0{opacity:0.3;fill:none;stroke:#5B3F91;stroke-width:2;}
</style>
<path class="st0" d="M116.1,206.5l0.6-1.1c0.3-0.5,0.6-1.1,0.7-1.6l17.4-57.3l0.3-0.9l0.8,0.2l34.1,8.3 M116.8,205.8l0.7,0.4
	 M116.8,205.8l0.7,0.4 M117.6,206.2c9.7,5.7,20.6,8.8,31.6,8.8 M216,141.7 M117.6,206.2 M177.3,149.6L177.3,149.6l16.1-61.3l0.4-1.6
	l1.1,1.1c0.5,0.5,1,1.1,1.5,1.6l0,0l0,0 M195.8,90.1l0.7-0.7 M177.3,149.6 M177.3,149.6c-0.9,3.4-4,5.4-7.2,4.6L177.3,149.6z
	 M196.5,89.4c12.6,13.9,19.6,32.4,19.6,52v0.3l0,0 M216,141.7 M215.9,141.9L215.9,141.9l0.1-0.2c0-0.1,0-0.2,0-0.3h-0.9 M216,141.7
	c-0.1,19.6-7,37.9-19.6,51.8c-12.6,13.9-29.5,21.6-47.3,21.6 M149.1,215C149.1,215,149.1,215,149.1,215l0-1L149.1,215z M198.4,38.2
	L198.4,38.2l0.1,0l0.3-0.1c0.1,0,0.1,0,0.2,0c0,0,0.1,0,0.1,0l0,0l0,0c0,0,0.1,0,0.2,0c0.1,0,0.3,0,0.4,0l0,0c0.1,0,0.1,0,0.2,0
	l1.1,0.5c0,0,0,0,0,0c0.2,0.1,0.5,0.2,0.7,0.4l0,0c0.2,0.2,0.4,0.4,0.5,0.6l0,0.1l0.1,0.1l0.5,0.6l11,21.2c0,0,0,0,0,0
	c1.1,2.1,0.3,4.9-1.5,6.1c-2,1.2-4.4,0.4-5.5-1.7l0,0l-5.2-10l-1.1-2.1l-0.6,2.4l-4.4,16.8l-0.2,0.7l0.5,0.4c3,2.5,5.6,4.9,7.8,7.4
	c14.5,16,22.5,37.2,22.5,59.9v0c0,22.6-8,43.8-22.5,59.9c-13.3,14.6-30.8,23.2-49.5,24.6l-0.9,0.1v1v19.9v1h1h6.2h0h0
	c1.1,0,2.1,0.4,2.8,1.3c0.7,0.8,1.2,1.9,1.2,3.1v75.6v0v0c0,1.2-0.4,2.3-1.2,3.1c-0.7,0.8-1.7,1.3-2.8,1.3h-22.3h0h0
	c-1.1,0-2.1-0.4-2.8-1.3c-0.7-0.8-1.2-1.9-1.2-3.1v0l-0.1-75.6c0-2.5,1.8-4.4,4-4.4h6.2h1v-1V227v-1l-0.9-0.1
	c-11-0.8-21.8-4.2-31.5-9.9l-1-0.6l-0.4,1.2l-7.7,24.6v0c-0.7,2.2-3.1,3.5-5.1,2.7h0c-2.1-0.8-3.2-3.3-2.5-5.6l0,0l8.4-27l0.2-0.7
	l-0.6-0.5c-20.1-16-32-41.5-32-68.7c0-46.7,34.6-84.7,77-84.7c13.4,0,26.5,3.9,38,11.1l1,0.7l0.3-1.3l3.4-12.9l0.7-2.5l-2,1.3
	l-8.6,5.4v0c-0.9,0.6-2,0.7-3.1,0.4c-1-0.3-1.9-1.1-2.4-2.1c-0.5-1-0.7-2.2-0.4-3.4c0.3-1.1,0.9-2.1,1.9-2.7c0,0,0,0,0,0l19.6-12.3
	C197.8,38.4,198.1,38.3,198.4,38.2z M101.8,89.3c-12.5,13.8-19.4,32-19.6,51.4l0,0l0,0.7c0,21.3,8.6,41.8,23.3,55.7l1.1,1l0.5-1.5
	l19.3-61.8c0,0,0,0,0,0c0.3-1,0.8-1.9,1.4-2.5c1.4-1.6,3.6-2.3,5.7-1.7c0,0,0,0,0,0l33,8.9l0.9,0.2l0.3-1L183.3,79l0.2-0.8l-0.6-0.4
	c-10.2-6.6-21.8-10.1-33.8-10.1C131.3,67.7,114.5,75.4,101.8,89.3z"/>
</svg>
