<svg width="138" height="230" viewBox="0 0 138 230" fill="none" xmlns="http://www.w3.org/2000/svg">
<path fill-rule="evenodd" clip-rule="evenodd" d="M137.777 163.088C137.777 199.421 108.026 229.256 71.6089 229.256C35.2767 229.256 5.44124 199.421 5.44124 163.088V93.0745C5.44124 90.4237 6.38189 90.2542 8.00562 90.3389C19.9734 90.7661 31.9429 94.8692 31.9429 122.14V47.0806C31.9429 38.1893 38.7817 33.8297 45.4496 34.0011C52.0327 34.0859 58.4444 38.4468 58.4444 47.0806V96.4086C58.4444 78.9681 84.8613 78.9681 84.8613 96.4086V108.376C84.8613 90.9359 111.363 90.9359 111.363 108.376V124.961C111.363 107.52 137.78 107.52 137.78 124.961L137.777 163.088ZM88.6188 57.9357C87.5933 61.4408 83.917 63.4931 80.4121 62.5528C76.907 61.5274 74.8547 57.851 75.8818 54.3461C76.736 51.4393 77.0784 48.619 77.0784 45.5412C77.0784 27.9309 62.8021 13.6533 45.1905 13.6533C27.4939 13.6533 13.218 27.9297 13.218 45.5412C13.218 48.6191 13.6451 51.4393 14.501 54.3461C15.4417 57.8512 13.3892 61.5274 9.88394 62.4681C6.37887 63.4936 2.70259 61.4427 1.7619 57.9378C0.650041 53.9192 0.0517578 49.7311 0.0517578 45.5412C0.0517578 33.1445 5.0956 21.7754 13.2176 13.6533C21.4243 5.44661 32.7088 0.402344 45.1902 0.402344C57.6715 0.402344 68.956 5.44618 77.078 13.6533C85.2847 21.86 90.329 33.1445 90.329 45.5412C90.329 49.731 89.7307 54.004 88.6188 57.9378L88.6188 57.9357Z" fill="url(#paint0_linear_62_2656)" fill-opacity="0.3"/>
<defs>
<linearGradient id="paint0_linear_62_2656" x1="68.9157" y1="0.402344" x2="68.9157" y2="229.256" gradientUnits="userSpaceOnUse">
<stop stop-color="white"/>
<stop offset="1" stop-color="#8B39B2"/>
</linearGradient>
</defs>
</svg>
