<svg width="113" height="180" viewBox="0 0 113 180" fill="none" xmlns="http://www.w3.org/2000/svg">
<path d="M105.999 71.9053L105.991 71.9057L105.983 71.906C101.181 72.0703 96.6285 72.9417 93.2511 76.1798C89.8807 79.4113 87.4725 85.2055 87.4725 95.7159H86.4725H85.4725V37.1594C85.4725 33.9864 84.2124 31.6869 82.3773 30.1787C80.5189 28.6514 78.0152 27.8935 75.5077 27.9553L75.5077 27.9554L75.4954 27.9555C73.0144 27.9862 70.6092 28.7902 68.8408 30.314C67.0933 31.8198 65.9101 34.0748 65.9101 37.1594V75.6417H64.9101H63.9101C63.9101 72.5302 62.6931 70.2603 60.9067 68.7525C59.0983 67.2261 56.6505 66.4372 54.1634 66.4372C51.6762 66.4372 49.2285 67.2261 47.42 68.7525C45.6336 70.2603 44.4166 72.5302 44.4166 75.6417V84.9781H43.4166H42.4166C42.4166 81.8678 41.1963 79.5982 39.4037 78.09C37.5888 76.563 35.132 75.7737 32.6354 75.7737C30.1388 75.7737 27.682 76.563 25.8671 78.09C24.0745 79.5982 22.8542 81.8678 22.8542 84.9781V97.9162H21.8542H20.8542C20.8542 94.8047 19.6372 92.5348 17.8509 91.0271C16.0424 89.5006 13.5946 88.7118 11.1075 88.7118C8.62029 88.7118 6.17254 89.5006 4.36404 91.0271C2.57765 92.5348 1.36069 94.8047 1.36069 97.9162L1.36323 127.661C1.36323 155.414 25.0824 178.28 54.1991 178.28C83.2478 178.28 107.035 155.413 107.035 127.661V73.0407C107.035 72.1764 106.882 71.9761 106.864 71.9553C106.853 71.9491 106.81 71.9277 106.696 71.912C106.537 71.8902 106.321 71.8892 105.999 71.9053ZM39.9679 35.9584C39.9679 39.1273 40.4398 42.3617 41.3154 45.336L41.3158 45.3359C41.9836 47.5244 44.4148 48.8658 46.7771 48.2639C49.1252 47.5993 50.4235 45.272 49.7665 43.1204C49.038 40.7436 48.749 38.4427 48.749 35.9584C48.749 21.6286 60.8523 10.0817 75.6938 10.0817C90.6028 10.0817 102.708 21.6259 102.708 35.9584C102.708 38.4589 102.345 40.7542 101.624 43.1082C101.022 45.2819 102.346 47.5974 104.669 48.1952L104.68 48.1979L104.69 48.2008C107.049 48.8624 109.46 47.5242 110.066 45.3599L110.066 45.3598L110.068 45.3522C110.948 42.3024 111.42 39.1284 111.42 35.9584C111.42 26.5749 107.439 17.9618 101.016 11.8035C94.5216 5.57659 85.587 1.74414 75.6941 1.74414C65.8004 1.74414 56.8681 5.57679 50.4451 11.7999L50.4414 11.8035C43.9471 18.0304 39.9679 26.5784 39.9679 35.9584Z" stroke="#5B3F91" stroke-width="2"/>
</svg>
