<svg width="20" height="20" viewBox="0 0 20 20" fill="none" xmlns="http://www.w3.org/2000/svg">
<path d="M9.99999 0C8.02218 2.38934e-06 6.08878 0.586494 4.44429 1.68531C2.7998 2.78413 1.51808 4.34591 0.761204 6.17317C0.00433044 8.00044 -0.1937 10.0111 0.192154 11.9509C0.578008 13.8907 1.53042 15.6725 2.92894 17.0711C4.32747 18.4696 6.1093 19.422 8.04911 19.8079C9.98892 20.1937 11.9996 19.9957 13.8268 19.2388C15.6541 18.4819 17.2159 17.2002 18.3147 15.5557C19.4135 13.9112 20 11.9778 20 9.99999C19.997 7.34874 18.9425 4.80694 17.0678 2.93223C15.193 1.05752 12.6512 0.00299146 9.99999 0ZM9.99999 18.0255C8.41269 18.0255 6.86104 17.5548 5.54126 16.673C4.22147 15.7911 3.19282 14.5377 2.58539 13.0712C1.97796 11.6048 1.81903 9.99109 2.1287 8.43429C2.43836 6.8775 3.20272 5.44749 4.32511 4.3251C5.44749 3.20271 6.8775 2.43836 8.4343 2.12869C9.99109 1.81903 11.6048 1.97796 13.0712 2.58539C14.5377 3.19282 15.7911 4.22147 16.673 5.54125C17.5548 6.86104 18.0255 8.41269 18.0255 9.99999C18.0231 12.1277 17.1768 14.1677 15.6722 15.6722C14.1677 17.1768 12.1278 18.0231 9.99999 18.0255V18.0255Z" fill="#F07C26"/>
<path d="M9.56655 7.06791C10.3048 7.06791 10.9034 6.4694 10.9034 5.7311C10.9034 4.9928 10.3048 4.39429 9.56655 4.39429C8.82825 4.39429 8.22974 4.9928 8.22974 5.7311C8.22974 6.4694 8.82825 7.06791 9.56655 7.06791Z" fill="#F07C26"/>
<path d="M8.6913 8.26638C8.50745 8.299 8.34096 8.39531 8.22103 8.53842C8.1011 8.68153 8.03538 8.86229 8.0354 9.04901C8.03537 9.15337 8.05591 9.25672 8.09584 9.35315C8.13576 9.44957 8.1943 9.53719 8.2681 9.61099C8.34189 9.68478 8.42951 9.74332 8.52593 9.78325C8.62236 9.82317 8.72571 9.84371 8.83007 9.84368H8.90883V14.2457H8.4837C8.30336 14.2457 8.1304 14.3173 8.00288 14.4448C7.87535 14.5724 7.80371 14.7453 7.80371 14.9257C7.80371 15.106 7.87535 15.279 8.00288 15.4065C8.1304 15.534 8.30336 15.6056 8.4837 15.6056H11.5164C11.6968 15.6056 11.8697 15.534 11.9973 15.4065C12.1248 15.279 12.1964 15.106 12.1964 14.9257C12.1964 14.7453 12.1248 14.5724 11.9973 14.4448C11.8697 14.3173 11.6968 14.2457 11.5164 14.2457H11.0959V8.62636C11.0959 8.52496 11.0735 8.42481 11.0301 8.33312C10.9868 8.24144 10.9237 8.1605 10.8453 8.09614C10.7669 8.03177 10.6753 7.98557 10.5769 7.96086C10.4786 7.93615 10.376 7.93356 10.2765 7.95325C9.59041 8.08909 8.71851 8.2616 8.6913 8.26638Z" fill="#F07C26"/>
</svg>
