<svg width="20" height="20" viewBox="0 0 20 20" fill="none" xmlns="http://www.w3.org/2000/svg">
<path d="M9.99999 0C8.02218 2.38934e-06 6.08878 0.586494 4.44429 1.68531C2.7998 2.78413 1.51808 4.34591 0.761204 6.17317C0.00433044 8.00044 -0.1937 10.0111 0.192154 11.9509C0.578008 13.8907 1.53042 15.6725 2.92894 17.0711C4.32747 18.4696 6.1093 19.422 8.04911 19.8079C9.98892 20.1937 11.9996 19.9957 13.8268 19.2388C15.6541 18.4819 17.2159 17.2002 18.3147 15.5557C19.4135 13.9112 20 11.9778 20 9.99999C19.997 7.34874 18.9425 4.80694 17.0678 2.93223C15.193 1.05752 12.6512 0.00299146 9.99999 0ZM9.99999 18.0255C8.41269 18.0255 6.86104 17.5548 5.54126 16.673C4.22147 15.7911 3.19282 14.5377 2.58539 13.0712C1.97796 11.6048 1.81903 9.99109 2.1287 8.43429C2.43836 6.8775 3.20272 5.44749 4.32511 4.3251C5.44749 3.20271 6.8775 2.43836 8.4343 2.12869C9.99109 1.81903 11.6048 1.97796 13.0712 2.58539C14.5377 3.19282 15.7911 4.22147 16.673 5.54125C17.5548 6.86104 18.0255 8.41269 18.0255 9.99999C18.0231 12.1277 17.1768 14.1677 15.6722 15.6722C14.1677 17.1768 12.1278 18.0231 9.99999 18.0255V18.0255Z" fill="#169F0A"/>
<path d="M13.8345 6.07495L13.8345 6.0749C14.121 5.7369 14.6197 5.7052 14.9433 6.00963L14.9433 6.00966C15.2604 6.30824 15.2868 6.81566 15.0052 7.14804L9.26545 13.9249C9.26545 13.9249 9.26544 13.9249 9.26543 13.9249C9.1238 14.0922 8.92053 14.193 8.70257 14.1996L8.70129 14.1997C8.69625 14.1998 8.68838 14.2 8.68012 14.2C8.47004 14.2 8.27052 14.1121 8.12492 13.9586L13.8345 6.07495ZM13.8345 6.07495L8.64785 12.1989L6.13546 9.55092C6.13543 9.55089 6.1354 9.55086 6.13537 9.55082C5.82997 9.22862 5.33005 9.22891 5.0248 9.55088C4.72508 9.86687 4.72503 10.375 5.02485 10.6909C5.02485 10.6909 5.02486 10.6909 5.02487 10.691L8.12492 13.9586L13.8345 6.07495Z" fill="#169F0A" stroke="#169F0A" stroke-width="0.4"/>
</svg>
