<svg width="20" height="20" viewBox="0 0 20 20" fill="none" xmlns="http://www.w3.org/2000/svg">
<path d="M9.99999 0C8.02218 2.38934e-06 6.08878 0.586494 4.44429 1.68531C2.7998 2.78413 1.51808 4.34591 0.761204 6.17317C0.00433044 8.00044 -0.1937 10.0111 0.192154 11.9509C0.578008 13.8907 1.53042 15.6725 2.92894 17.0711C4.32747 18.4696 6.1093 19.422 8.04911 19.8079C9.98892 20.1937 11.9996 19.9957 13.8268 19.2388C15.6541 18.4819 17.2159 17.2002 18.3147 15.5557C19.4135 13.9112 20 11.9778 20 9.99999C19.997 7.34874 18.9425 4.80694 17.0678 2.93223C15.193 1.05752 12.6512 0.00299146 9.99999 0ZM9.99999 18.0255C8.41269 18.0255 6.86104 17.5548 5.54126 16.673C4.22147 15.7911 3.19282 14.5377 2.58539 13.0712C1.97796 11.6048 1.81903 9.99109 2.1287 8.43429C2.43836 6.8775 3.20272 5.44749 4.32511 4.3251C5.44749 3.20271 6.8775 2.43836 8.4343 2.12869C9.99109 1.81903 11.6048 1.97796 13.0712 2.58539C14.5377 3.19282 15.7911 4.22147 16.673 5.54125C17.5548 6.86104 18.0255 8.41269 18.0255 9.99999C18.0231 12.1277 17.1768 14.1677 15.6722 15.6722C14.1677 17.1768 12.1278 18.0231 9.99999 18.0255V18.0255Z" fill="#DC3646"/>
<path d="M13.9266 12.8448L13.9265 12.8447L11.0796 9.9919L13.9105 7.15522L13.9106 7.15519C14.2084 6.85656 14.2085 6.37256 13.9105 6.07402L13.9105 6.07399C13.6123 5.77534 13.1289 5.77534 12.8307 6.07399L12.8307 6.07402L10.0002 8.91026L7.16981 6.07402L7.16978 6.07399C6.87157 5.77534 6.38818 5.77534 6.08997 6.07399L6.08994 6.07402C5.79192 6.37265 5.79186 6.85667 6.08994 7.15522C6.08995 7.15523 6.08996 7.15524 6.08997 7.15525L8.92073 9.99189L6.07354 12.8447L6.07354 12.8447C5.77549 13.1434 5.77549 13.6273 6.07354 13.9259C6.2226 14.0753 6.41824 14.15 6.61354 14.15C6.80884 14.15 7.00448 14.0753 7.15354 13.9259L10.0002 11.0735L12.8467 13.9259L12.9528 13.82L12.8467 13.9259C12.9957 14.0753 13.1914 14.15 13.3867 14.15C13.582 14.15 13.7776 14.0753 13.9267 13.9259L13.9267 13.9259C14.2245 13.6274 14.2244 13.1434 13.9266 12.8448Z" fill="#DC3646" stroke="#DC3646" stroke-width="0.3"/>
</svg>
