<svg width="18" height="17" viewBox="0 0 18 17" fill="none" xmlns="http://www.w3.org/2000/svg">
<path d="M5.3163 7.87701L5.31619 7.87712C5.12056 8.07086 5.12016 8.38671 5.31559 8.58075L7.55183 10.8017C7.8189 11.0671 8.24981 11.0676 8.51781 10.8033L8.51786 10.8033L12.684 6.6918C12.8797 6.49868 12.8808 6.18307 12.6862 5.98869L12.6862 5.98864C12.4935 5.79625 12.1817 5.79537 11.9879 5.98674L11.9879 5.98675L8.03707 9.88883L6.01394 7.87792L6.01393 7.87791C5.82098 7.68617 5.50971 7.68586 5.3163 7.87701ZM16.1543 8.46094C16.1543 12.4123 12.9513 15.6153 8.99994 15.6153C5.04862 15.6153 1.84559 12.4123 1.84559 8.46094C1.84559 4.50962 5.04862 1.30659 8.99994 1.30659C12.9513 1.30659 16.1543 4.50962 16.1543 8.46094ZM9 16.6109C13.5012 16.6109 17.15 12.9621 17.15 8.46094C17.15 3.95977 13.5012 0.310937 9 0.310937C4.49883 0.310937 0.85 3.95977 0.85 8.46094C0.85 12.9621 4.49883 16.6109 9 16.6109Z" fill="#747474" stroke="#747474" stroke-width="0.3"/>
</svg>