<svg width="317" height="348" viewBox="0 0 317 348" fill="none" xmlns="http://www.w3.org/2000/svg">
<path d="M198.408 38.237L198.355 38.2468C198.107 38.2924 197.805 38.384 197.494 38.5255L177.903 50.819C177.903 50.819 177.903 50.8191 177.903 50.8192C176.934 51.4273 176.287 52.3458 176.016 53.488C175.74 54.6554 175.879 55.8631 176.403 56.8928C176.915 57.8986 177.793 58.6306 178.837 58.9652C179.903 59.2681 180.963 59.1363 181.912 58.5402L181.912 58.5399L190.55 53.1205L192.593 51.8387L191.934 54.3231L188.501 67.2673L188.163 68.5418L187.116 67.8826C175.554 60.6037 162.463 56.7795 149.094 56.7494C106.678 56.7494 72.1284 94.7724 72.1258 141.454C72.1258 168.617 84.0485 194.159 104.119 210.128L104.69 210.582L104.461 211.316L96.0189 238.319L96.0178 238.322C95.2902 240.624 96.4054 243.156 98.4997 243.958L98.4998 243.958C100.506 244.726 102.919 243.44 103.619 241.229C103.62 241.228 103.62 241.227 103.62 241.226L111.33 216.58L111.694 215.414L112.68 215.999C122.323 221.718 133.137 225.114 144.145 225.909L145.034 225.973L145.034 226.953L145.034 246.833V247.88H144.083H137.892C135.659 247.88 133.863 249.856 133.863 252.314L133.863 252.315L133.921 327.876L133.921 327.877C133.921 329.095 134.332 330.188 135.077 331.008C135.83 331.837 136.849 332.306 137.901 332.28L137.911 332.28L137.922 332.28L160.265 332.28C161.371 332.28 162.364 331.828 163.109 331.008C163.863 330.178 164.289 329.057 164.266 327.9L164.266 327.888L164.266 327.877L164.266 252.251C164.266 251.033 163.854 249.94 163.109 249.12C162.356 248.291 161.337 247.822 160.285 247.848L160.275 247.848L160.265 247.848L154.074 247.848H153.123V246.801V226.921V225.939L154.013 225.876C172.722 224.561 190.261 215.904 203.518 201.314C218.086 185.282 226.088 164.057 226.061 141.451V141.45C226.061 118.812 218.058 97.5866 203.518 81.5857C201.273 79.1153 198.72 76.6698 195.688 74.1912L195.158 73.7581L195.341 73.0603L199.759 56.2448L200.383 53.8719L201.498 56.0154L206.704 66.0193L206.705 66.0201C207.793 68.1164 210.255 68.88 212.226 67.6702C214.064 66.5332 214.786 63.6826 213.72 61.6065C213.72 61.6059 213.72 61.6054 213.719 61.6048L202.732 40.444L202.25 39.8074L202.199 39.7504L202.153 39.6811C202.038 39.5042 201.869 39.2745 201.65 39.0779L201.646 39.075C201.439 38.8872 201.196 38.7505 200.972 38.6517L198.408 38.237ZM198.408 38.237L198.46 38.2206L198.793 38.1158C198.856 38.108 198.923 38.1074 199 38.112C199.043 38.1145 199.082 38.1179 199.131 38.1222L199.159 38.1247C199.199 38.1281 199.258 38.1334 199.322 38.1357C199.459 38.1507 199.585 38.1589 199.69 38.166C199.764 38.1708 199.828 38.1752 199.89 38.1805L200.969 38.6506L198.408 38.237ZM116.84 205.811L117.104 204.969L135.649 145.788L135.932 144.885L136.776 145.114L170.091 154.156L116.84 205.811ZM116.84 205.811L117.553 206.232M116.84 205.811L117.553 206.232M117.553 206.232C127.284 211.981 138.159 215.028 149.125 215.027C166.966 215.058 183.782 207.359 196.424 193.446C209.007 179.599 215.967 161.233 216.034 141.675L216.036 141.672V141.39C216.036 121.728 209.099 103.221 196.452 89.3668L196.445 89.3597C196 88.8703 195.505 88.3257 194.979 87.8091L193.852 86.7047L193.432 88.2995L177.308 149.585L177.308 149.588M117.553 206.232L177.308 149.588M177.308 149.588C176.409 153.036 173.261 155.014 170.092 154.157L177.308 149.588ZM183.327 79.0354L183.533 78.2535L182.895 77.8416C172.675 71.2429 161.058 67.7563 149.126 67.7561C131.284 67.7248 114.468 75.424 101.825 89.3375C89.3297 103.089 82.3787 121.296 82.2176 140.702L82.2119 140.704L82.211 141.392C82.1829 162.73 90.8052 183.148 105.475 197.094L106.538 198.105L106.996 196.643L126.326 134.866C126.326 134.865 126.327 134.864 126.327 134.863C126.647 133.86 127.136 133.006 127.762 132.317C129.186 130.75 131.321 130.047 133.448 130.611C133.449 130.612 133.45 130.612 133.451 130.612L166.454 139.56L167.341 139.801L167.595 138.835L183.327 79.0354Z" stroke="#5B3F91" stroke-width="2"/>
</svg>
