<svg width="137" height="229" viewBox="0 0 137 229" fill="none" xmlns="http://www.w3.org/2000/svg">
<path d="M23.2077 0.158811C23.4277 0.137905 23.6229 0.139024 23.843 0.118115C23.9891 0.119736 24.2339 0.0746797 24.5278 0.12571L24.8714 0.225049C25.1653 0.276079 25.5078 0.374346 25.8519 0.520383L43.0134 10.173C44.0463 10.7545 44.7644 11.6423 45.0706 12.74C45.3768 13.8377 45.2429 14.9771 44.6938 15.9453C44.1436 16.9146 43.1997 17.5929 42.1029 17.8896C40.9819 18.1627 39.8333 18.031 38.8004 17.4496L31.253 13.2052L34.3501 23.177C44.4465 17.6312 55.9171 14.7867 67.666 14.8942C104.943 15.3085 135.653 45.2001 136.08 81.4865C136.328 102.602 126.082 122.338 108.591 134.553L116.163 155.368C116.971 157.564 115.801 159.952 113.563 160.688C111.397 161.4 108.818 160.16 108.036 158.035L101.12 139.034C92.6959 143.386 83.2239 145.92 73.5579 146.43L73.737 161.694L79.1112 161.754C81.506 161.78 83.4571 163.68 83.4844 166.011L84.1147 224.027C84.1281 225.169 83.7009 226.21 82.9042 226.985C82.1075 227.761 81.0135 228.201 79.8649 228.164L60.4687 227.948C59.2952 227.935 58.216 227.495 57.4009 226.702C56.5858 225.909 56.1087 224.834 56.1207 223.716L55.4396 165.65C55.4262 164.508 55.8534 163.467 56.6501 162.692C57.4468 161.916 58.5408 161.476 59.6894 161.513L65.0636 161.573L64.8846 146.309C48.4329 145.104 32.9391 138.204 21.1537 126.732C8.20665 114.13 0.978386 97.5512 0.796559 79.9798C0.590173 62.3844 7.43164 45.9616 20.0621 33.6675C22.0177 31.764 24.2429 29.8858 26.8836 27.9897L22.8968 15.036L18.4676 22.6669C17.3187 24.6505 14.6892 25.3355 12.5741 24.1713C10.5579 23.0546 9.76967 20.3607 10.8935 18.3989L20.2783 2.19337L20.7601 1.62771L20.7839 1.60462C20.9041 1.44039 21.0965 1.20372 21.3633 0.993357C21.6291 0.781909 21.9219 0.642934 22.1639 0.551179L23.2077 0.158811ZM125.67 81.3229C125.496 66.4385 119.371 52.3903 108.426 41.737C97.4814 31.0837 83.0243 25.0982 67.7571 24.9522C57.5453 24.8387 47.635 27.3671 38.9483 32.2642L53.1434 78.3305L81.7169 71.7779C83.8365 71.3016 85.9932 71.9443 87.4513 73.3636C88.0933 73.9885 88.5919 74.755 88.9195 75.6385L106.258 123.262C118.691 112.844 125.887 97.4699 125.674 81.3243L125.67 81.3229ZM11.1513 80.0503C11.3259 94.9347 17.4507 108.983 28.3954 119.636C39.3402 130.289 53.7974 136.275 69.0646 136.421C78.4456 136.525 87.7252 134.323 96.0037 130.064L79.3713 84.4458L50.5307 91.0676C47.364 91.7924 44.1677 89.9992 43.2275 86.9203L28.6781 39.7092C28.2431 40.0854 27.8324 40.4852 27.4464 40.8609C16.7468 51.2261 10.9754 65.1644 11.1503 80.0485L11.1513 80.0503Z" fill="url(#paint0_linear_62_2655)" fill-opacity="0.2"/>
<defs>
<linearGradient id="paint0_linear_62_2655" x1="51.245" y1="190.035" x2="32.677" y2="6.21131" gradientUnits="userSpaceOnUse">
<stop stop-color="#6645A5"/>
<stop offset="1" stop-color="#8B39B2"/>
</linearGradient>
</defs>
</svg>
