<svg width="24" height="24" viewBox="0 0 24 24" fill="none" xmlns="http://www.w3.org/2000/svg">
<path d="M10.5369 6.26675C10.9683 6.26675 11.3212 5.88783 11.3212 5.42466V2.92634C11.3212 2.23159 11.8571 1.68423 12.5042 1.68423H21.2747C21.9217 1.68423 22.4315 2.23161 22.4315 2.92634V21.0736C22.4315 21.7684 21.9217 22.3158 21.2747 22.3158H12.5042C11.8571 22.3158 11.3212 21.7684 11.3212 21.0736V18.6245C11.3212 18.1613 10.9683 17.7824 10.5369 17.7824C10.1056 17.7824 9.75269 18.1613 9.75269 18.6245V21.0736C9.75269 22.7018 10.9879 24 12.5042 24H21.2747C22.791 24 24 22.7018 24 21.0736V2.92634C24 1.29824 22.791 0 21.2747 0H12.5042C10.9879 0 9.75269 1.29824 9.75269 2.92634V5.42466C9.75269 5.89485 10.1056 6.26675 10.5369 6.26675Z" fill="#5B3F91"/>
<path d="M0.299961 12.8807L4.33962 16.7884C4.48351 16.9275 4.67736 17 4.87122 17C5.06507 17 5.25267 16.9275 5.40273 16.7884C5.69668 16.504 5.69668 16.0443 5.40273 15.76L2.57618 13.0257H17.0715C17.4842 13.0257 17.8219 12.6991 17.8219 12.2999C17.8219 11.9006 17.4842 11.574 17.0715 11.574H2.40753L5.43419 8.19872C5.70303 7.89621 5.67184 7.43654 5.35912 7.1764C5.04649 6.91636 4.57119 6.94653 4.30236 7.24903L0.262644 11.7494C0.100055 11.8826 0 12.0822 0 12.3C0 12.5358 0.118814 12.7475 0.300164 12.8807H0.299961Z" fill="#5B3F91"/>
</svg>
