<svg width="100" height="25" viewBox="0 0 100 25" fill="none" xmlns="http://www.w3.org/2000/svg">
<path d="M88.401 12.5247C87.8931 11.611 86.7291 11.2923 85.8402 11.8022C85.6497 11.9085 81.819 14.1608 81.6709 19.4942C82.6444 19.7705 83.6603 20.1954 84.7397 20.8329C85.5016 21.2791 85.8402 22.1928 85.5862 23.0215C85.5439 23.149 85.4804 23.2977 85.4169 23.4252C84.909 24.2964 83.8085 24.6151 82.9196 24.1477C83.1947 24.3177 83.5122 24.4026 83.8508 24.4026C83.9989 24.4026 84.1471 24.3814 84.2741 24.3601C85.2899 24.1264 85.9249 23.1065 85.6709 22.0865C84.528 17.1781 87.3428 15.3082 87.6815 15.0958C88.5915 14.5645 88.909 13.4384 88.401 12.5247Z" fill="#8CC86D"/>
<path d="M85.3961 23.4251C85.4808 23.2976 85.5231 23.1701 85.5654 23.0214C85.8194 22.1927 85.4807 21.279 84.7188 20.8328C83.6395 20.1953 82.6024 19.7704 81.6501 19.4941C81.6289 20.5353 81.7347 21.6827 82.031 22.9364C82.158 23.4676 82.4966 23.8926 82.9199 24.1476C83.7876 24.615 84.8882 24.3176 85.3961 23.4251Z" fill="#8CC86D"/>
<path d="M88.5498 14.0548C88.2747 14.8623 87.4916 15.4147 86.6027 15.351C78.6027 14.6498 77.3117 8.48768 77.2482 8.23269C77.0366 7.21276 77.7139 6.21408 78.7297 6.00159C79.7456 5.81035 80.7403 6.44781 80.9308 7.46774C81.0154 7.85022 81.9255 11.1225 86.9202 11.5687C87.9572 11.6537 88.7191 12.5887 88.6345 13.6298C88.6133 13.7573 88.5921 13.9061 88.5498 14.0548Z" fill="#91D8F6"/>
<path d="M69.6079 13.991C69.8619 14.7984 70.6661 15.3722 71.555 15.2872C79.555 14.6285 80.8883 8.46636 80.9518 8.21138C81.1634 7.19145 80.5074 6.19276 79.4703 5.98028C78.4544 5.76779 77.4597 6.4265 77.2481 7.44643C77.1634 7.8289 76.2534 11.1012 71.2375 11.5262C70.2005 11.6112 69.4174 12.5248 69.5233 13.566C69.5233 13.7148 69.5444 13.8635 69.6079 13.991Z" fill="#EE3197"/>
<path d="M74.3063 24.4237C75.1529 24.4237 75.936 23.8287 76.1476 22.9575C77.9889 15.0743 72.5709 11.9082 72.3381 11.7807C71.428 11.2708 70.2852 11.5895 69.7561 12.5032C69.2481 13.4169 69.5656 14.5643 70.4545 15.0743C70.7931 15.2868 73.6079 17.1779 72.4651 22.0863C72.2323 23.1062 72.846 24.1262 73.8619 24.3599C74.01 24.4024 74.1582 24.4237 74.3063 24.4237Z" fill="#F58634"/>
<path d="M82.0095 22.9584C81.7132 21.6834 81.6074 20.536 81.6286 19.5161C76.4434 18.0287 73.1418 21.0885 72.9725 21.2372C72.2106 21.9597 72.1895 23.1496 72.909 23.9145C73.6286 24.6582 74.8138 24.7007 75.5545 23.9995C75.8508 23.7233 78.4752 21.5772 82.7926 24.127C82.8138 24.1483 82.8561 24.1483 82.8773 24.1695C82.4751 23.9145 82.1365 23.4896 82.0095 22.9584Z" fill="#F2C94C"/>
<path d="M0.402115 23.2147C0.126984 22.9385 0 22.6198 0 22.2586V1.88116C0 1.51993 0.126984 1.17995 0.402115 0.924972C0.677247 0.627492 0.994706 0.5 1.37566 0.5C1.73544 0.5 2.0529 0.627492 2.32804 0.903723C2.582 1.17995 2.73015 1.49868 2.73015 1.85991V22.2373C2.73015 22.5985 2.60317 22.9385 2.32804 23.1935C2.07407 23.4697 1.75661 23.5972 1.37566 23.5972C0.994706 23.6397 0.677247 23.491 0.402115 23.2147Z" fill="#8B39B2"/>
<path d="M5.96822 5.11102C5.65076 4.79229 5.48145 4.38856 5.48145 3.8786C5.48145 3.36863 5.65076 2.96491 5.96822 2.64618C6.28568 2.32745 6.68779 2.17871 7.1534 2.17871C7.64017 2.17871 8.04228 2.32745 8.35974 2.64618C8.6772 2.96491 8.84651 3.36863 8.84651 3.8786C8.84651 4.38856 8.6772 4.79229 8.35974 5.11102C8.04228 5.42974 7.64017 5.57848 7.1534 5.57848C6.68779 5.57848 6.30684 5.42974 5.96822 5.11102ZM6.20102 23.2148C5.94705 22.9386 5.7989 22.6199 5.7989 22.2586V8.97826C5.7989 8.61703 5.92589 8.2983 6.20102 8.02207C6.45499 7.76709 6.77245 7.61835 7.1534 7.61835C7.51319 7.61835 7.85181 7.74584 8.10578 8.02207C8.38091 8.27706 8.50789 8.59578 8.50789 8.97826V22.2374C8.50789 22.5986 8.38091 22.9386 8.10578 23.1936C7.83064 23.4698 7.51319 23.5973 7.1534 23.5973C6.77245 23.6398 6.45499 23.491 6.20102 23.2148Z" fill="#8B39B2"/>
<path d="M22.6879 8.2342C23.6403 8.76542 24.381 9.53037 24.9313 10.5291C25.4815 11.5277 25.7567 12.7177 25.7567 14.0988V22.2795C25.7567 22.6407 25.6297 22.9595 25.3546 23.2357C25.1006 23.4907 24.7831 23.6394 24.4022 23.6394C24.0424 23.6394 23.7249 23.5119 23.4498 23.2357C23.1958 22.9807 23.0477 22.662 23.0477 22.2795V14.3538C23.0477 12.9939 22.6244 11.9315 21.799 11.124C20.9736 10.3166 19.9577 9.93409 18.7302 9.93409C17.4816 9.93409 16.4445 10.3803 15.598 11.2515C14.7514 12.1227 14.3281 13.2276 14.3281 14.5238V22.2795C14.3281 22.6407 14.2011 22.9595 13.926 23.2357C13.6509 23.4907 13.3334 23.6394 12.9736 23.6394C12.6138 23.6394 12.2964 23.5119 12.0213 23.2357C11.7673 22.9807 11.6191 22.662 11.6191 22.2795V8.97791C11.6191 8.61668 11.7461 8.29795 12.0213 8.02172C12.2752 7.76674 12.5927 7.618 12.9736 7.618C13.3334 7.618 13.672 7.74549 13.926 8.02172C14.2011 8.2767 14.3281 8.59543 14.3281 8.97791V9.99784C14.8996 9.19039 15.6191 8.55293 16.508 8.10671C17.3969 7.66049 18.3916 7.42676 19.471 7.42676C20.6773 7.44801 21.7567 7.70299 22.6879 8.2342Z" fill="#8B39B2"/>
<path d="M41.7986 22.3225C41.7986 22.8113 41.6081 23.1725 41.2483 23.4275C41.0155 23.5762 40.7404 23.6612 40.4653 23.6612C39.9996 23.6612 39.6399 23.47 39.3859 23.1087L34.2642 15.7142L31.3647 18.2641V22.2588C31.3647 22.62 31.2378 22.96 30.9626 23.215C30.6875 23.4912 30.37 23.6187 30.0103 23.6187C29.6505 23.6187 29.333 23.4912 29.0579 23.215C28.8039 22.9387 28.6558 22.62 28.6558 22.2588V1.88139C28.6558 1.52017 28.7827 1.18019 29.0579 0.925208C29.3118 0.648976 29.6293 0.521484 30.0103 0.521484C30.37 0.521484 30.7087 0.648976 30.9626 0.925208C31.2378 1.20144 31.3647 1.52017 31.3647 1.88139V14.8643L39.1531 7.89474C39.3647 7.68226 39.661 7.57602 39.9996 7.57602C40.4229 7.57602 40.7404 7.72476 41.0155 8.04348C41.2272 8.27722 41.333 8.5747 41.333 8.93593C41.333 9.3609 41.1848 9.67963 40.8674 9.95586L36.2748 13.9931L41.5234 21.6001C41.7139 21.8126 41.7986 22.0676 41.7986 22.3225Z" fill="#8B39B2"/>
<path d="M43.7884 22.62C43.344 22.365 43.1323 22.0038 43.1323 21.5363C43.1323 21.2176 43.2593 20.9201 43.4921 20.7076C43.7249 20.4739 44.0212 20.3676 44.3387 20.3676C44.5291 20.3676 44.6985 20.4101 44.8254 20.4739C46.1376 21.1113 47.4498 21.43 48.7831 21.43C49.7143 21.43 50.4974 21.2176 51.1111 20.8138C51.7249 20.4101 52.0423 19.9002 52.0423 19.2627C52.0423 18.6677 51.7672 18.2215 51.1958 17.9453C50.6244 17.6478 49.7566 17.3291 48.5503 17.0103C47.4286 16.7129 46.4974 16.3941 45.7778 16.1179C45.0582 15.8204 44.4445 15.3742 43.9366 14.758C43.4286 14.1418 43.1747 13.3556 43.1747 12.3569C43.1747 10.8907 43.6826 9.72208 44.6985 8.80839C45.7143 7.91595 47.0688 7.46973 48.7196 7.46973C49.545 7.46973 50.4127 7.59722 51.3016 7.83095C52.1905 8.06469 52.9947 8.38342 53.7143 8.78714C53.9048 8.89338 54.0741 9.04212 54.1799 9.25461C54.3069 9.44585 54.3492 9.65833 54.3492 9.87082C54.3492 10.1895 54.2222 10.487 53.9894 10.6995C53.7566 10.9332 53.4603 11.0395 53.1429 11.0395C52.9524 11.0395 52.7831 10.997 52.6138 10.912C51.9789 10.5933 51.3439 10.3383 50.6667 10.147C50.0106 9.95581 49.3969 9.87082 48.8466 9.87082C47.9577 9.87082 47.217 10.1046 46.6667 10.5508C46.0953 10.997 45.8201 11.5707 45.8201 12.2719C45.8201 12.7394 45.9683 13.1006 46.2858 13.3981C46.6032 13.6956 46.9842 13.9293 47.4498 14.078C47.9154 14.248 48.5715 14.4393 49.4392 14.6942C50.5185 14.9705 51.4286 15.268 52.127 15.5442C52.8254 15.8204 53.4392 16.2666 53.9471 16.8404C54.455 17.4141 54.6878 18.179 54.6878 19.1565C54.6878 20.6226 54.1164 21.77 52.9736 22.62C51.8307 23.4699 50.4551 23.8736 48.8043 23.8736C47.0477 23.8311 45.3545 23.4274 43.7884 22.62Z" fill="#8B39B2"/>
<path d="M67.9152 22.8956C67.7459 23.1081 67.5342 23.2568 67.2803 23.3418C66.3279 23.6393 65.439 23.8093 64.6136 23.8093C63.0475 23.8093 61.82 23.2993 60.9522 22.3007C60.3597 21.7057 59.9575 21.0257 59.7247 20.2395C59.4919 19.4533 59.3861 18.4972 59.3861 17.3922V10.4652H57.0792C56.7406 10.4652 56.4443 10.3377 56.1904 10.104C55.9576 9.87023 55.8306 9.57275 55.8306 9.21152C55.8306 8.8503 55.9576 8.57407 56.1904 8.31908C56.4232 8.08535 56.7195 7.95786 57.0792 7.95786H59.3861V4.11186C59.3861 3.75064 59.5131 3.41066 59.7882 3.15568C60.0634 2.87944 60.3808 2.75195 60.7406 2.75195C61.1004 2.75195 61.439 2.87944 61.693 3.15568C61.9681 3.43191 62.0951 3.75064 62.0951 4.11186V7.97911H66.2644C66.603 7.97911 66.8993 8.1066 67.1533 8.34033C67.3861 8.57407 67.5131 8.87155 67.5131 9.23277C67.5131 9.594 67.3861 9.87023 67.1533 10.1252C66.9205 10.3589 66.6242 10.4864 66.2644 10.4864H62.0951V17.796C62.0951 18.5184 62.1586 19.1134 62.2856 19.5808C62.4126 20.0483 62.6242 20.4308 62.9417 20.7495C63.3861 21.1957 63.9575 21.4082 64.6983 21.4082C65.2274 21.4082 65.8623 21.302 66.6242 21.0895C66.6877 21.0682 66.7935 21.047 66.9416 21.047C67.2591 21.047 67.5554 21.1532 67.767 21.387C67.9999 21.6207 68.1057 21.8969 68.1057 22.2582C68.1692 22.4706 68.0845 22.6831 67.9152 22.8956Z" fill="#8B39B2"/>
<path d="M99.5981 7.83072C99.8732 8.0857 100 8.40443 100 8.7869C100 9.14813 99.8732 9.46686 99.5981 9.74309C99.323 9.99807 99.0055 10.1468 98.6457 10.1468C97.1219 10.1468 95.9156 10.6143 95.0267 11.528C94.1378 12.4417 93.6934 13.7591 93.6934 15.5015V22.3223C93.6934 22.6835 93.5664 23.0022 93.2912 23.2784C93.0161 23.5334 92.6987 23.6822 92.3389 23.6822C91.9791 23.6822 91.6616 23.5547 91.3865 23.2784C91.1325 23.0235 90.9844 22.7047 90.9844 22.3223V8.97814C90.9844 8.61691 91.1114 8.29819 91.3865 8.02195C91.6405 7.76697 91.9579 7.61823 92.3389 7.61823C92.6987 7.61823 93.0373 7.74572 93.2912 8.02195C93.5664 8.27694 93.6934 8.59567 93.6934 8.97814V9.99807C94.2436 9.21187 94.942 8.59567 95.7886 8.14945C96.6563 7.70323 97.6087 7.46949 98.6457 7.44824C99.0055 7.44824 99.3441 7.57573 99.5981 7.83072Z" fill="#8B39B2"/>
</svg>
