<svg width="107" height="104" viewBox="0 0 107 104" fill="none" xmlns="http://www.w3.org/2000/svg">
<path d="M105.678 38.3022C105.109 37.5671 104.317 37.1006 103.443 37.1006H56.759H50.4429H3.77292C2.89838 37.1006 2.10712 37.553 1.53798 38.3022C0.968832 39.0373 0.60791 40.0552 0.60791 41.1861C0.60791 43.4338 2.02383 45.2575 3.77292 45.2575H25.9696C26.8442 45.2575 27.6354 45.7098 28.2046 46.4591C28.7737 47.1942 29.1346 48.212 29.1346 49.343C29.1346 51.5907 27.7187 53.4285 25.9696 53.4285H8.56207C6.89628 53.4285 5.53588 55.1673 5.53588 57.3161V57.6978C5.53588 59.8465 6.8824 61.5853 8.56207 61.5853H25.9696C26.8442 61.5853 27.6354 62.0377 28.2046 62.787C28.7737 63.5221 29.1346 64.5399 29.1346 65.6709C29.1346 67.9186 27.7187 69.7422 25.9696 69.7422H8.56207C6.89628 69.7422 5.53588 71.481 5.53588 73.6298V74.0115C5.53588 76.1603 6.8824 77.8991 8.56207 77.8991H50.4429H56.759H98.6399C100.306 77.8991 101.666 76.1603 101.666 74.0115V73.6157C101.666 71.4669 100.32 69.7281 98.6399 69.7281H81.2323C79.4832 69.7281 78.0673 67.9045 78.0673 65.6567C78.0673 64.5258 78.4282 63.5079 78.9974 62.7728C79.5665 62.0377 80.3578 61.5712 81.2462 61.5712H98.6537C100.32 61.5712 101.68 59.8324 101.68 57.6836V57.3019C101.68 55.1531 100.333 53.4143 98.6537 53.4143H81.2323C79.4832 53.4143 78.0673 51.5907 78.0673 49.3288C78.0673 48.1979 78.4282 47.18 78.9974 46.4449C79.5665 45.7098 80.3578 45.2433 81.2462 45.2433H103.443C105.192 45.2433 106.608 43.4197 106.608 41.172C106.608 40.0552 106.247 39.0373 105.678 38.3022Z" fill="#FAF2FF"/>
<path d="M91.8379 80.7123C92.9068 80.7123 93.7813 81.6029 93.7813 82.6914C93.7813 83.78 92.9068 84.6706 91.8379 84.6706C90.769 84.6706 89.8945 83.78 89.8945 82.6914C89.8945 81.6029 90.769 80.7123 91.8379 80.7123ZM91.8379 80.2882C90.533 80.2882 89.478 81.3626 89.478 82.6914C89.478 84.0203 90.533 85.0947 91.8379 85.0947C93.1428 85.0947 94.1978 84.0203 94.1978 82.6914C94.1978 81.3767 93.1428 80.2882 91.8379 80.2882Z" fill="#5B3F91"/>
<path d="M89.4226 6.31086H87.9095V4.76996H86.7851V6.31086H85.272V7.45593H86.7851V8.99683H87.9095V7.45593H89.4226V6.31086Z" fill="#5B3F91"/>
<path d="M42.4748 2.06983H40.9617V0.528931H39.8234V2.06983H38.3242V3.22904H39.8234V4.76994H40.9617V3.22904H42.4748V2.06983Z" fill="#5B3F91"/>
<path d="M56.7452 21.324C57.8185 21.324 58.6886 20.4379 58.6886 19.3449C58.6886 18.2518 57.8185 17.3657 56.7452 17.3657C55.6719 17.3657 54.8018 18.2518 54.8018 19.3449C54.8018 20.4379 55.6719 21.324 56.7452 21.324Z" fill="#5B3F91"/>
<path d="M15.3225 43.7166H13.8094V42.1757H12.685V43.7166H11.1719V44.8758H12.685V46.4167H13.8094V44.8758H15.3225V43.7166Z" fill="#5B3F91"/>
<path d="M55.6487 65.3599H48.8745V99.9099H55.6487V65.3599Z" fill="white"/>
<path d="M55.3709 65.6426V99.6273H49.1519V65.6426H55.3709ZM55.9262 65.0771H55.3709H49.1519H48.5967V65.6426V99.6273V100.193H49.1519H55.3709H55.9262V99.6273V65.6426V65.0771Z" fill="#5B3F91"/>
<path d="M50.4012 65.6426H49.1519V99.6272H50.4012V65.6426Z" fill="#F6F2F9"/>
<path d="M19.9175 65.6567V41.2426C19.9175 37.454 21.9025 33.8915 25.0953 31.9548C26.7334 30.9511 28.6074 30.428 30.5369 30.428H70.2522C72.1679 30.428 74.0558 30.9511 75.6938 31.9548C78.8866 33.8915 80.8717 37.454 80.8717 41.2426V65.6567H19.9175Z" fill="white"/>
<path d="M70.252 30.7108C72.1816 30.7108 74 31.248 75.5409 32.1951C78.5671 34.0329 80.5799 37.3975 80.5799 41.2426V65.374H20.1949V41.2426C20.1949 37.3975 22.2216 34.0329 25.2478 32.1951C26.7887 31.248 28.6072 30.7108 30.5367 30.7108H70.252ZM70.252 30.1453H30.5367C28.5655 30.1453 26.636 30.6825 24.9563 31.7145C23.3599 32.6758 22.0412 34.0471 21.1111 35.6869C20.1533 37.3692 19.6396 39.2918 19.6396 41.2426V65.374V65.9395H20.1949H80.5799H81.1352V65.374V41.2426C81.1352 39.2918 80.6355 37.3692 79.6637 35.6869C78.7337 34.0612 77.401 32.6758 75.8185 31.7145C74.1389 30.6967 72.2093 30.1453 70.252 30.1453Z" fill="#5B3F91"/>
<path d="M80.5798 41.1012V42.0201H20.1948V41.1012C20.1948 35.2911 24.8174 30.5694 30.5366 30.5694H70.2519C75.9573 30.5835 80.5798 35.2911 80.5798 41.1012Z" fill="#FAF2FF"/>
<path d="M75.5411 32.0679H25.248C26.7889 31.1207 28.6074 30.5836 30.5369 30.5836H70.2522C72.1818 30.5836 73.9864 31.1207 75.5411 32.0679Z" fill="white"/>
<path d="M42.2805 65.374H20.1948V40.8327C20.1948 35.178 24.7063 30.5836 30.259 30.5836H32.2163C37.7689 30.5836 42.2805 35.178 42.2805 40.8327V65.374Z" fill="#5B3F91"/>
<path d="M15.4338 65.6426C14.8925 65.6426 14.4482 65.1902 14.4482 64.6389V64.1017C14.4482 63.4514 14.9619 62.9283 15.6004 62.9283H41.9477V65.6285H15.4338V65.6426Z" fill="white"/>
<path d="M41.6699 63.2111V65.3457H15.4336C15.045 65.3457 14.7257 65.0206 14.7257 64.6248V64.0876C14.7257 63.5928 15.1144 63.197 15.6002 63.197H41.6699V63.2111ZM42.2252 62.6456H41.6699H15.6002C14.809 62.6456 14.1704 63.2959 14.1704 64.1017V64.6389C14.1704 65.3457 14.7396 65.9253 15.4336 65.9253H41.6699H42.2252V65.3599V63.2252V62.6456Z" fill="#5B3F91"/>
<path d="M70.6406 45.4836H64.6854H49.6932C49.4017 45.4836 49.1519 45.724 49.1519 46.035V46.4449C49.1519 46.7418 49.3878 46.9963 49.6932 46.9963H64.6854V50.3325H71.4319V45.4836H70.6406Z" fill="#5B3F91"/>
<path d="M88.6316 101.14H18.1686C17.7521 101.14 17.4189 100.801 17.4189 100.376C17.4189 99.9524 17.7521 99.6131 18.1686 99.6131H88.6316C89.0481 99.6131 89.3812 99.9524 89.3812 100.376C89.3812 100.801 89.0481 101.14 88.6316 101.14Z" fill="#5B3F91"/>
<path d="M56.1621 103.529H23.6513C23.3737 103.529 23.1377 103.303 23.1377 103.006V102.525C23.1377 102.242 23.3598 102.002 23.6513 102.002H56.1621C56.4397 102.002 56.6757 102.228 56.6757 102.525V103.006C56.6757 103.303 56.4536 103.529 56.1621 103.529Z" fill="#5B3F91"/>
<path d="M78.2894 58.3339H72.5979C72.5424 58.3339 72.5146 58.2915 72.5146 58.2491V58.1643C72.5146 58.1077 72.5563 58.0795 72.5979 58.0795H78.2894C78.3449 58.0795 78.3727 58.1219 78.3727 58.1643V58.2491C78.3727 58.2915 78.3449 58.3339 78.2894 58.3339Z" fill="#5B3F91"/>
<path d="M78.2478 60.3837H65.56C65.4906 60.3837 65.4351 60.3272 65.4351 60.2565C65.4351 60.1858 65.4906 60.1293 65.56 60.1293H78.2478C78.3172 60.1293 78.3727 60.1858 78.3727 60.2565C78.3727 60.3272 78.3172 60.3837 78.2478 60.3837Z" fill="#5B3F91"/>
</svg>
