<svg width="24" height="18" viewBox="0 0 24 18" fill="none" xmlns="http://www.w3.org/2000/svg">
<path d="M0.762 2.76037V2.75963C0.762 2.31713 1.08693 1.83476 1.65 1.60099V2.75963V4.81126V5.26089L2.04657 5.47277L11.6466 10.6018L12 10.7907L12.3534 10.6018L21.9534 5.47277L22.35 5.26089V4.81126V2.75963V1.59988C22.9198 1.83398 23.25 2.31918 23.25 2.75963V15.0694C23.25 15.6775 22.6204 16.371 21.6 16.371H2.4C1.37974 16.371 0.750213 15.6778 0.75 15.0697C0.75 15.0696 0.75 15.0695 0.75 15.0694L0.762 2.76037ZM2.75343 2.09813L1.75112 1.56262C1.94365 1.49621 2.16095 1.45801 2.4 1.45801H21.6C21.839 1.45801 22.0566 1.49606 22.2497 1.56217L21.2466 2.09813L12 7.03837L2.75343 2.09813Z" stroke="white" stroke-width="1.5"/>
</svg>
