<svg width="25" height="18" viewBox="0 0 25 18" fill="none" xmlns="http://www.w3.org/2000/svg">
<path d="M1.07511 2.81554V2.81481C1.07511 2.37231 1.40004 1.88993 1.96311 1.65617V2.81481V4.86644V5.31606L2.35968 5.52794L11.9597 10.657L12.3131 10.8458L12.6665 10.657L22.2665 5.52794L22.6631 5.31606V4.86644V2.81481V1.65505C23.2329 1.88915 23.5631 2.37436 23.5631 2.81481V15.1246C23.5631 15.7327 22.9335 16.4262 21.9131 16.4262H2.71311C1.69285 16.4262 1.06332 15.733 1.06311 15.1249C1.06311 15.1248 1.06311 15.1247 1.06311 15.1246L1.07511 2.81554ZM3.06654 2.1533L2.06424 1.6178C2.25676 1.55139 2.47406 1.51318 2.71311 1.51318H21.9131C22.1522 1.51318 22.3698 1.55124 22.5628 1.61734L21.5597 2.1533L12.3131 7.09354L3.06654 2.1533Z" stroke="#5B3F91" stroke-width="1.5"/>
</svg>
