<svg width="24" height="24" viewBox="0 0 24 24" fill="none" xmlns="http://www.w3.org/2000/svg">
<path d="M12.7423 11.6039V8.36268C14.0536 8.78328 14.2269 10.441 14.2516 10.5152V10.5152C14.2651 10.6784 14.4098 10.7987 14.5727 10.7824L15.4372 10.696C15.6131 10.6784 15.7383 10.5169 15.7113 10.3421V10.3421C15.6124 9.25341 14.8453 7.17493 12.7423 6.82858V6.25955C12.7423 5.84958 12.41 5.51724 12 5.51724V5.51724C11.59 5.51724 11.2577 5.84958 11.2577 6.25955V6.85323C10.3423 7.02651 9.52578 7.47179 9.0061 8.06565C8.41224 8.73373 8.1896 9.57493 8.31332 10.5152C8.53596 12.1976 10.2927 12.7668 11.2823 12.9399L11.2825 15.4883C9.84747 14.9935 9.82277 13.8306 9.82277 13.7564V13.7564C9.82277 13.5917 9.69067 13.4574 9.52595 13.4546L8.63495 13.4398C8.47183 13.4371 8.33814 13.5686 8.33814 13.7317V13.7317C8.33814 13.7564 8.33814 16.3544 11.3072 17.0225V17.8636C11.3072 18.2736 11.6395 18.606 12.0495 18.606V18.606C12.4595 18.606 12.7918 18.2736 12.7918 17.8636V17.1213C13.2866 17.0718 14.1031 16.8987 14.7712 16.3048C15.3649 15.7358 15.7113 14.8698 15.7113 13.8306C15.7113 12.2225 13.8061 11.7523 12.7423 11.6039ZM14.2267 13.8306C14.2267 14.4491 14.0535 14.9193 13.7071 15.241C13.4596 15.4636 13.1132 15.6121 12.7421 15.6863L12.7423 13.1132C13.5835 13.2616 14.2267 13.5584 14.2267 13.8306ZM9.77313 10.3172C9.69892 9.79751 9.82267 9.37694 10.1195 9.05538C10.4412 8.68431 10.9114 8.48635 11.2577 8.38729V11.4058C10.6144 11.2821 9.84736 10.9606 9.77313 10.3172Z" fill="#5B3F91"/>
<path d="M12 0C5.36907 0 0 5.36907 0 12C0 18.6062 5.39381 24 12 24C18.6062 24 24 18.6062 24 12C24 5.36907 18.6062 0 12 0V0ZM12 21.9711C6.50722 21.9711 2.02887 17.4928 2.02887 12C2.02887 6.48247 6.50722 2.00412 12 2.00412C17.4928 2.00412 21.9711 6.48247 21.9711 11.9753C21.9711 17.4928 17.4928 21.9711 12 21.9711V21.9711Z" fill="#5B3F91"/>
</svg>
