<svg width="23" height="23" viewBox="0 0 23 23" fill="none" xmlns="http://www.w3.org/2000/svg">
<path d="M1.4 11.5118C1.4 17.0706 5.93608 21.6 11.5 21.6C17.0649 21.6 21.6 17.0696 21.6 11.4882C21.6 5.92939 17.0639 1.4 11.5 1.4C5.93511 1.4 1.4 5.93036 1.4 11.5118Z" stroke="#5B3F91" stroke-width="1.2"/>
<path d="M11.7682 10.7056C10.2073 10.2794 9.7053 9.83889 9.7053 9.15278C9.7053 8.36556 10.3998 7.81667 11.5619 7.81667C12.7859 7.81667 13.2397 8.43056 13.2809 9.33333H14.8006C14.7525 8.09111 14.0305 6.95 12.5933 6.58167V5H10.5305V6.56C9.19646 6.86333 8.12377 7.77333 8.12377 9.16722C8.12377 10.8356 9.43713 11.6661 11.3556 12.15C13.0747 12.5833 13.4185 13.2189 13.4185 13.8906C13.4185 14.3889 13.0815 15.1833 11.5619 15.1833C10.1454 15.1833 9.58841 14.5189 9.51277 13.6667H8C8.08251 15.2483 9.21022 16.1367 10.5305 16.4328V18H12.5933V16.4472C13.9342 16.18 15 15.3639 15 13.8833C15 11.8322 13.3291 11.1317 11.7682 10.7056Z" fill="#5B3F91"/>
</svg>
