<svg width="23" height="23" viewBox="0 0 23 23" fill="none" xmlns="http://www.w3.org/2000/svg">
<path d="M12.3209 10.5474V2.62549C13.2897 2.78174 14.2115 3.14111 15.0865 3.70361C15.9772 4.25049 16.7819 4.91455 17.5006 5.6958C18.2194 6.46143 18.8053 7.28174 19.2584 8.15674C19.7272 9.01611 20.0397 9.81299 20.1959 10.5474H12.3209ZM12.4381 0.633301C11.8287 0.555176 11.3209 0.727051 10.9147 1.14893C10.5084 1.55518 10.3053 2.02393 10.3053 2.55518V10.5474C10.3053 11.1099 10.5006 11.5864 10.8912 11.9771C11.2819 12.3677 11.7584 12.563 12.3209 12.563H20.3131C20.8444 12.563 21.3209 12.3599 21.7428 11.9536C22.1647 11.5474 22.3209 11.0239 22.2115 10.3833C22.024 9.39893 21.649 8.37549 21.0865 7.31299C20.524 6.25049 19.8209 5.2583 18.9772 4.33643C18.5709 3.8833 18.1178 3.45361 17.6178 3.04736C17.1334 2.62549 16.61 2.2583 16.0475 1.9458C15.5006 1.61768 14.9303 1.33643 14.3365 1.10205C13.7272 0.883301 13.0944 0.727051 12.4381 0.633301ZM7.72717 2.81299C7.97717 2.70361 8.14905 2.51611 8.2428 2.25049C8.33655 1.98486 8.32874 1.72705 8.21936 1.47705C8.10999 1.22705 7.92249 1.05518 7.65686 0.961426C7.40686 0.867676 7.15686 0.875488 6.90686 0.984863C5.92249 1.43799 5.03186 2.01611 4.23499 2.71924C3.42249 3.40674 2.72717 4.1958 2.14905 5.08643C1.57092 5.97705 1.1178 6.9458 0.789673 7.99268C0.477173 9.03955 0.320923 10.1333 0.320923 11.2739C0.320923 12.8208 0.617798 14.2817 1.21155 15.6567C1.78967 17.0317 2.58655 18.2349 3.60217 19.2661C4.63342 20.2817 5.83655 21.0786 7.21155 21.6567C8.58655 22.2505 10.0475 22.5474 11.5944 22.5474C12.735 22.5474 13.8287 22.3911 14.8756 22.0786C15.9225 21.7505 16.8912 21.2974 17.7819 20.7192C18.6725 20.1411 19.4615 19.4458 20.149 18.6333C20.8522 17.8364 21.4303 16.9458 21.8834 15.9614C21.9928 15.7114 22.0006 15.4614 21.9069 15.2114C21.8131 14.9458 21.6412 14.7583 21.3912 14.6489C21.1412 14.5396 20.8834 14.5317 20.6178 14.6255C20.3522 14.7192 20.1647 14.8911 20.0553 15.1411C19.6803 15.938 19.2115 16.6724 18.649 17.3442C18.0709 18.0005 17.4147 18.5708 16.6803 19.0552C15.9459 19.5239 15.149 19.8911 14.2897 20.1567C13.4303 20.4224 12.5319 20.5552 11.5944 20.5552C10.3131 20.5552 9.10999 20.313 7.98499 19.8286C6.85999 19.3442 5.87561 18.6802 5.03186 17.8364C4.18811 16.9927 3.52405 16.0083 3.03967 14.8833C2.5553 13.7583 2.31311 12.5552 2.31311 11.2739C2.31311 10.3364 2.44592 9.43799 2.71155 8.57861C2.97717 7.71924 3.34436 6.92236 3.81311 6.18799C4.29749 5.45361 4.8678 4.79736 5.52405 4.21924C6.19592 3.65674 6.9303 3.18799 7.72717 2.81299Z" fill="#5B3F91"/>
</svg>
