<svg width="25" height="25" viewBox="0 0 25 25" fill="none" xmlns="http://www.w3.org/2000/svg">
<path fill-rule="evenodd" clip-rule="evenodd" d="M9.31311 7.35181C9.31311 5.69495 10.6563 4.35181 12.3131 4.35181C13.97 4.35181 15.3131 5.69495 15.3131 7.35181C15.3131 9.00866 13.97 10.3518 12.3131 10.3518C10.6563 10.3518 9.31311 9.00866 9.31311 7.35181ZM12.3131 2.35181C9.55169 2.35181 7.31311 4.59038 7.31311 7.35181C7.31311 10.1132 9.55169 12.3518 12.3131 12.3518C15.0745 12.3518 17.3131 10.1132 17.3131 7.35181C17.3131 4.59038 15.0745 2.35181 12.3131 2.35181ZM8.31311 14.3518C6.98703 14.3518 5.71526 14.8786 4.77758 15.8163C3.83989 16.754 3.31311 18.0257 3.31311 19.3518V21.3518C3.31311 21.9041 3.76083 22.3518 4.31311 22.3518C4.8654 22.3518 5.31311 21.9041 5.31311 21.3518V19.3518C5.31311 18.5562 5.62918 17.7931 6.19179 17.2305C6.7544 16.6679 7.51746 16.3518 8.31311 16.3518H16.3131C17.1088 16.3518 17.8718 16.6679 18.4344 17.2305C18.997 17.7931 19.3131 18.5562 19.3131 19.3518V21.3518C19.3131 21.9041 19.7608 22.3518 20.3131 22.3518C20.8654 22.3518 21.3131 21.9041 21.3131 21.3518V19.3518C21.3131 18.0257 20.7863 16.754 19.8486 15.8163C18.911 14.8786 17.6392 14.3518 16.3131 14.3518H8.31311Z" fill="#5B3F91"/>
</svg>
