<svg width="24" height="25" viewBox="0 0 24 25" fill="none" xmlns="http://www.w3.org/2000/svg">
<path fill-rule="evenodd" clip-rule="evenodd" d="M9 7.29663C9 5.63978 10.3431 4.29663 12 4.29663C13.6569 4.29663 15 5.63978 15 7.29663C15 8.95349 13.6569 10.2966 12 10.2966C10.3431 10.2966 9 8.95349 9 7.29663ZM12 2.29663C9.23858 2.29663 7 4.53521 7 7.29663C7 10.0581 9.23858 12.2966 12 12.2966C14.7614 12.2966 17 10.0581 17 7.29663C17 4.53521 14.7614 2.29663 12 2.29663ZM8 14.2966C6.67392 14.2966 5.40215 14.8234 4.46447 15.7611C3.52678 16.6988 3 17.9705 3 19.2966V21.2966C3 21.8489 3.44772 22.2966 4 22.2966C4.55228 22.2966 5 21.8489 5 21.2966V19.2966C5 18.501 5.31607 17.7379 5.87868 17.1753C6.44129 16.6127 7.20435 16.2966 8 16.2966H16C16.7956 16.2966 17.5587 16.6127 18.1213 17.1753C18.6839 17.7379 19 18.501 19 19.2966V21.2966C19 21.8489 19.4477 22.2966 20 22.2966C20.5523 22.2966 21 21.8489 21 21.2966V19.2966C21 17.9705 20.4732 16.6988 19.5355 15.7611C18.5979 14.8234 17.3261 14.2966 16 14.2966H8Z" fill="white"/>
</svg>
