<svg xmlns="http://www.w3.org/2000/svg" width="27" height="27" viewBox="0 0 27 27">
  <path id="Icon_awesome-redo-alt" data-name="Icon awesome-redo-alt" d="M14.038.562A13.454,13.454,0,0,0,4.737,4.3L2.793,2.357a1.306,1.306,0,0,0-2.23.924v7.3a1.306,1.306,0,0,0,1.306,1.306h7.3a1.306,1.306,0,0,0,.924-2.23L7.818,7.382A9.145,9.145,0,1,1,8.04,20.946a.652.652,0,0,0-.891.03L4.99,23.135a.654.654,0,0,0,.026.949A13.5,13.5,0,1,0,14.038.562Z" transform="translate(-0.563 -0.562)" fill="#312638" opacity="0.38"/>
</svg>
