<svg width="17" height="15" viewBox="0 0 17 15" fill="none" xmlns="http://www.w3.org/2000/svg">
<path fill-rule="evenodd" clip-rule="evenodd" d="M15.3522 7.75758L16.0488 7.06091L15.3522 6.36425C15.3454 6.35724 15.3384 6.35032 15.3314 6.34351L9.34172 0.353806C8.9512 -0.0367183 8.31803 -0.0367183 7.92751 0.353806C7.53698 0.74433 7.53698 1.3775 7.92751 1.76802L12.2204 6.06091L1.13477 6.06091C0.58248 6.06091 0.134765 6.50863 0.134765 7.06091C0.134765 7.6132 0.58248 8.06091 1.13477 8.06091L12.2204 8.06091L7.92751 12.3538C7.53698 12.7443 7.53698 13.3775 7.92751 13.768C8.31803 14.1585 8.9512 14.1585 9.34172 13.768L15.3314 7.77831C15.3384 7.7715 15.3454 7.76459 15.3522 7.75758Z" fill="#5B3F91"/>
</svg>
