<svg width="144" height="65" viewBox="0 0 144 65" fill="none" xmlns="http://www.w3.org/2000/svg">
<path d="M142.731 5.1681C141.963 4.19033 140.896 3.56982 139.716 3.56982H76.7369H68.2161H5.25561C4.07581 3.56982 3.00836 4.17153 2.24055 5.1681C1.47274 6.14586 0.98584 7.49969 0.98584 9.00394C0.98584 11.9937 2.896 14.4193 5.25561 14.4193H35.2002C36.38 14.4193 37.4475 15.021 38.2153 16.0175C38.9831 16.9953 39.47 18.3491 39.47 19.8534C39.47 22.8431 37.5598 25.2875 35.2002 25.2875H11.7165C9.46921 25.2875 7.63395 27.6003 7.63395 30.4584V30.9661C7.63395 33.8242 9.45048 36.1369 11.7165 36.1369H35.2002C36.38 36.1369 37.4475 36.7386 38.2153 37.7352C38.9831 38.713 39.47 40.0668 39.47 41.5711C39.47 44.5608 37.5598 46.9864 35.2002 46.9864H11.7165C9.46921 46.9864 7.63395 49.2992 7.63395 52.1573V52.6649C7.63395 55.523 9.45048 57.8358 11.7165 57.8358H68.2161H76.7369H133.237C135.484 57.8358 137.319 55.523 137.319 52.6649V52.1385C137.319 49.2804 135.502 46.9676 133.237 46.9676H109.753C107.393 46.9676 105.483 44.542 105.483 41.5523C105.483 40.048 105.97 38.6942 106.738 37.7164C107.505 36.7386 108.573 36.1181 109.771 36.1181H133.255C135.502 36.1181 137.338 33.8053 137.338 30.9473V30.4396C137.338 27.5815 135.521 25.2687 133.255 25.2687H109.753C107.393 25.2687 105.483 22.8431 105.483 19.8346C105.483 18.3303 105.97 16.9765 106.738 15.9987C107.505 15.021 108.573 14.4005 109.771 14.4005H139.716C142.076 14.4005 143.986 11.9748 143.986 8.98514C143.986 7.49969 143.499 6.14586 142.731 5.1681Z" fill="#FAF2FF"/>
<path d="M131.678 52.7335C134.473 52.7335 136.76 55.0295 136.76 57.8358C136.76 60.642 134.473 62.938 131.678 62.938C128.883 62.938 126.597 60.642 126.597 57.8358C126.597 55.0295 128.883 52.7335 131.678 52.7335ZM131.678 51.6401C128.266 51.6401 125.508 54.4099 125.508 57.8358C125.508 61.2616 128.266 64.0314 131.678 64.0314C135.09 64.0314 137.849 61.2616 137.849 57.8358C137.849 54.4464 135.09 51.6401 131.678 51.6401Z" fill="#5B3F91"/>
<path d="M96.8138 9.5681H94.7725V7.51855H93.2556V9.5681H91.2144V11.0912H93.2556V13.1407H94.7725V11.0912H96.8138V9.5681Z" fill="#5B3F91"/>
<path d="M49.8399 57.0649H47.7986V55.0154H46.263V57.0649H44.2405V58.6068H46.263V60.6563H47.7986V58.6068H49.8399V57.0649Z" fill="#5B3F91"/>
<path d="M69.864 29.1257C71.312 29.1257 72.4858 27.9471 72.4858 26.4933C72.4858 25.0394 71.312 23.8608 69.864 23.8608C68.416 23.8608 67.2422 25.0394 67.2422 26.4933C67.2422 27.9471 68.416 29.1257 69.864 29.1257Z" fill="#5B3F91"/>
<path d="M20.8367 12.3697H18.7955V10.3202H17.2786V12.3697H15.2373V13.9116H17.2786V15.9611H18.7955V13.9116H20.8367V12.3697Z" fill="#5B3F91"/>
<path d="M123.049 2.99628H27.9905C27.4287 2.99628 26.9792 2.545 26.9792 1.98092C26.9792 1.41684 27.4287 0.965576 27.9905 0.965576H123.049C123.611 0.965576 124.06 1.41684 124.06 1.98092C124.06 2.545 123.611 2.99628 123.049 2.99628Z" fill="#5B3F91"/>
<path d="M79.2463 6.17406H35.3875C35.0129 6.17406 34.6946 5.87321 34.6946 5.47835V4.83903C34.6946 4.46297 34.9942 4.14331 35.3875 4.14331H79.2463C79.6208 4.14331 79.9392 4.44416 79.9392 4.83903V5.47835C79.9392 5.87321 79.6396 6.17406 79.2463 6.17406Z" fill="#5B3F91"/>
<path d="M59.0522 42.4949H123.376C123.756 42.4949 124.061 42.0437 124.061 41.4796C124.061 40.9155 123.756 40.4642 123.376 40.4642H59.0522C58.672 40.4642 58.3679 40.9155 58.3679 41.4796C58.3679 42.0437 58.672 42.4949 59.0522 42.4949Z" fill="#5B3F91"/>
<path d="M88.6927 45.6727H118.371C118.624 45.6727 118.84 45.3719 118.84 44.977V44.3377C118.84 43.9616 118.637 43.642 118.371 43.642H88.6927C88.4392 43.642 88.2238 43.9428 88.2238 44.3377V44.977C88.2238 45.3719 88.4266 45.6727 88.6927 45.6727Z" fill="#5B3F91"/>
<path d="M105.783 31.8122H98.1045C98.0296 31.8122 97.9922 31.7558 97.9922 31.6994V31.5866C97.9922 31.5114 98.0484 31.4738 98.1045 31.4738H105.783C105.858 31.4738 105.895 31.5302 105.895 31.5866V31.6994C105.895 31.7558 105.858 31.8122 105.783 31.8122Z" fill="#5B3F91"/>
<path d="M105.727 34.5388H88.6099C88.5163 34.5388 88.4414 34.4636 88.4414 34.3695C88.4414 34.2755 88.5163 34.2003 88.6099 34.2003H105.727C105.82 34.2003 105.895 34.2755 105.895 34.3695C105.895 34.4636 105.82 34.5388 105.727 34.5388Z" fill="#5B3F91"/>
</svg>
