<svg xmlns="http://www.w3.org/2000/svg" width="27.01" height="25.526" viewBox="0 0 27.01 25.526">
  <g id="Group_1579" data-name="Group 1579" transform="translate(-1461.503 -118.312)" opacity="0.38">
    <path id="Path_185" data-name="Path 185" d="M4.5,11.5H24.008l-2.4,1.8a1.5,1.5,0,0,0,1.8,2.4l6-4.5a1.5,1.5,0,0,0,0-2.386l-5.792-4.5a1.5,1.5,0,0,0-1.846,2.371L24.128,8.5H4.5a1.5,1.5,0,1,0,0,3Z" transform="translate(1458.503 114.313)" fill="#312638"/>
    <path id="Path_186" data-name="Path 186" d="M28.506,17.5H9l2.4-1.8a1.5,1.5,0,0,0-1.8-2.4l-6,4.5a1.5,1.5,0,0,0,0,2.386l5.792,4.5a1.5,1.5,0,0,0,1.846-2.371L8.879,20.5H28.506a1.5,1.5,0,0,0,0-3Z" transform="translate(1458.507 118.834)" fill="#312638"/>
  </g>
</svg>
