<svg width="12" height="18" viewBox="0 0 12 18" fill="none" xmlns="http://www.w3.org/2000/svg">
<path d="M4.5557 16.5002H4.56285C4.80291 16.496 4.99413 16.2808 4.99047 16.0196L4.8166 4.16568C4.81272 3.90699 4.61897 3.70018 4.38219 3.70018H4.37504C4.13498 3.70441 3.94376 3.91954 3.94742 4.18075L4.12129 16.0347C4.12529 16.2931 4.31891 16.5002 4.5557 16.5002V16.5002ZM3.16503 16.5002C3.16976 16.5002 3.17461 16.5002 3.17934 16.5C3.41916 16.4917 3.60745 16.2734 3.59981 16.0122L3.25221 4.15829C3.24421 3.89696 3.04307 3.69211 2.80399 3.70056C2.56417 3.70887 2.37588 3.92718 2.38352 4.18839L2.73111 16.0423C2.73863 16.2981 2.93153 16.5002 3.16503 16.5002L3.16503 16.5002ZM7.4452 16.5002C7.68199 16.5002 7.87573 16.2934 7.87961 16.0347L8.05348 4.18075C8.05711 3.91942 7.86591 3.70427 7.62586 3.70018C7.39004 3.69319 7.18816 3.90437 7.18441 4.16545L7.01054 16.0194C7.00691 16.2807 7.19811 16.4959 7.43816 16.4999C7.44058 16.5002 7.44301 16.5002 7.44519 16.5002L7.4452 16.5002ZM8.83599 16.5002C9.06963 16.5002 9.2624 16.2982 9.27003 16.0423L9.61763 4.18839C9.62527 3.92732 9.43698 3.7089 9.19716 3.70056C8.95819 3.69198 8.75669 3.89695 8.74893 4.15828L8.40133 16.0122C8.3937 16.2733 8.58199 16.4917 8.82181 16.5C8.82654 16.4999 8.83127 16.5002 8.83599 16.5002V16.5002ZM10.8623 3.70018C10.6171 3.69596 10.4221 3.89737 10.4146 4.15842L10.0667 16.4729C10.0667 16.7936 9.82751 17.0543 9.53361 17.0543L2.46807 17.0544C2.17357 17.0544 1.93399 16.7936 1.93374 16.4583L1.58615 4.15808C1.57887 3.9019 1.38585 3.69957 1.15198 3.69957C1.14762 3.69957 1.14289 3.69957 1.1384 3.6997C0.898585 3.70762 0.71017 3.92606 0.717464 4.18713L1.06494 16.4725C1.06494 17.3149 1.69442 18 2.46808 18H9.53331C10.3065 18 10.9355 17.3147 10.9352 16.4869L11.2828 4.18666C11.2905 3.92599 11.1021 3.70781 10.8622 3.69964L10.8623 3.70018ZM11.5655 1.99732H9.21001C8.85744 0.723001 7.71278 0 6.00003 0C4.28728 0 3.14259 0.723001 2.79006 1.99732H0.434535C0.194473 1.99732 0 2.20903 0 2.47036C0 2.73169 0.194473 2.94339 0.434535 2.94339H11.5655C11.8055 2.94339 12 2.73169 12 2.47036C12 2.20903 11.8053 1.99732 11.5655 1.99732H11.5655ZM3.72403 1.99732C4.12957 1.14535 5.1462 0.946071 6 0.946071C6.8538 0.946071 7.87043 1.1455 8.27597 1.99759L3.7239 1.99746L3.72403 1.99732ZM6.43454 16.0272V4.17295C6.43454 3.91162 6.24006 3.69991 6 3.69991C5.75994 3.69991 5.56547 3.91162 5.56547 4.17295V16.0269C5.56547 16.2882 5.75994 16.4999 6 16.4999C6.24006 16.4999 6.43454 16.2883 6.43454 16.0271V16.0272Z" fill="#FF3A00"/>
</svg>
