<svg width="61" height="20" viewBox="0 0 61 20" fill="none" xmlns="http://www.w3.org/2000/svg">
<path d="M0 10C0 4.47715 4.47715 0 10 0H51C56.5229 0 61 4.47715 61 10C61 15.5228 56.5228 20 51 20H10C4.47715 20 0 15.5228 0 10Z" fill="#5B3F91"/>
<path d="M10.4893 13.291V7.60352H11.7607V15H10.5508L10.4893 13.291ZM10.7285 11.7324L11.2549 11.7188C11.2549 12.2109 11.2025 12.6667 11.0977 13.0859C10.9974 13.5007 10.8333 13.8607 10.6055 14.166C10.3776 14.4714 10.0791 14.7106 9.70996 14.8838C9.34082 15.0524 8.89193 15.1367 8.36328 15.1367C8.00326 15.1367 7.67285 15.0843 7.37207 14.9795C7.07585 14.8747 6.82064 14.7129 6.60645 14.4941C6.39225 14.2754 6.22591 13.9906 6.10742 13.6396C5.99349 13.2887 5.93652 12.8672 5.93652 12.375V7.60352H7.20117V12.3887C7.20117 12.7214 7.23763 12.9971 7.31055 13.2158C7.38802 13.43 7.49056 13.6009 7.61816 13.7285C7.75033 13.8516 7.89616 13.9382 8.05566 13.9883C8.21973 14.0384 8.38835 14.0635 8.56152 14.0635C9.09928 14.0635 9.52539 13.9609 9.83984 13.7559C10.1543 13.5462 10.3799 13.266 10.5166 12.915C10.6579 12.5596 10.7285 12.1654 10.7285 11.7324ZM14.9531 9.02539V17.8438H13.6816V7.60352H14.8438L14.9531 9.02539ZM19.9365 11.2402V11.3838C19.9365 11.9215 19.8727 12.4206 19.7451 12.8809C19.6175 13.3366 19.4307 13.7331 19.1846 14.0703C18.943 14.4076 18.6445 14.6696 18.2891 14.8564C17.9336 15.0433 17.5257 15.1367 17.0654 15.1367C16.596 15.1367 16.1813 15.0592 15.8213 14.9043C15.4613 14.7493 15.1559 14.5238 14.9053 14.2275C14.6546 13.9313 14.4541 13.5758 14.3037 13.1611C14.1579 12.7464 14.0576 12.2793 14.0029 11.7598V10.9941C14.0576 10.4473 14.1602 9.95736 14.3105 9.52441C14.4609 9.09147 14.6592 8.72233 14.9053 8.41699C15.1559 8.1071 15.459 7.8724 15.8145 7.71289C16.1699 7.54883 16.5801 7.4668 17.0449 7.4668C17.5098 7.4668 17.9222 7.55794 18.2822 7.74023C18.6423 7.91797 18.9453 8.17318 19.1914 8.50586C19.4375 8.83854 19.6221 9.2373 19.7451 9.70215C19.8727 10.1624 19.9365 10.6751 19.9365 11.2402ZM18.665 11.3838V11.2402C18.665 10.8711 18.6263 10.5247 18.5488 10.2012C18.4714 9.87305 18.3506 9.58594 18.1865 9.33984C18.027 9.08919 17.8219 8.89323 17.5713 8.75195C17.3206 8.60612 17.0221 8.5332 16.6758 8.5332C16.3568 8.5332 16.0788 8.58789 15.8418 8.69727C15.6094 8.80664 15.4111 8.95475 15.2471 9.1416C15.083 9.32389 14.9486 9.53353 14.8438 9.77051C14.7435 10.0029 14.6683 10.2445 14.6182 10.4951V12.2656C14.7093 12.5846 14.8369 12.8854 15.001 13.168C15.165 13.446 15.3838 13.6715 15.6572 13.8447C15.9307 14.0133 16.2747 14.0977 16.6895 14.0977C17.0312 14.0977 17.3252 14.027 17.5713 13.8857C17.8219 13.7399 18.027 13.5417 18.1865 13.291C18.3506 13.0404 18.4714 12.7533 18.5488 12.4297C18.6263 12.1016 18.665 11.7529 18.665 11.3838ZM26.3418 7.60352H27.4902V14.8428C27.4902 15.4945 27.3581 16.0505 27.0938 16.5107C26.8294 16.971 26.4603 17.3197 25.9863 17.5566C25.5169 17.7982 24.9746 17.9189 24.3594 17.9189C24.1042 17.9189 23.8034 17.8779 23.457 17.7959C23.1152 17.7184 22.778 17.584 22.4453 17.3926C22.1172 17.2057 21.8415 16.9528 21.6182 16.6338L22.2812 15.8818C22.5911 16.2555 22.9147 16.5153 23.252 16.6611C23.5938 16.807 23.931 16.8799 24.2637 16.8799C24.6647 16.8799 25.0111 16.8047 25.3027 16.6543C25.5944 16.5039 25.82 16.2806 25.9795 15.9844C26.1436 15.6927 26.2256 15.3327 26.2256 14.9043V9.23047L26.3418 7.60352ZM21.249 11.3838V11.2402C21.249 10.6751 21.3151 10.1624 21.4473 9.70215C21.584 9.2373 21.7777 8.83854 22.0283 8.50586C22.2835 8.17318 22.5911 7.91797 22.9512 7.74023C23.3112 7.55794 23.7168 7.4668 24.168 7.4668C24.6328 7.4668 25.0384 7.54883 25.3848 7.71289C25.7357 7.8724 26.0319 8.1071 26.2734 8.41699C26.5195 8.72233 26.7132 9.09147 26.8545 9.52441C26.9958 9.95736 27.0938 10.4473 27.1484 10.9941V11.623C27.0983 12.1654 27.0003 12.653 26.8545 13.0859C26.7132 13.5189 26.5195 13.888 26.2734 14.1934C26.0319 14.4987 25.7357 14.7334 25.3848 14.8975C25.0339 15.057 24.6237 15.1367 24.1543 15.1367C23.7122 15.1367 23.3112 15.0433 22.9512 14.8564C22.5957 14.6696 22.2904 14.4076 22.0352 14.0703C21.7799 13.7331 21.584 13.3366 21.4473 12.8809C21.3151 12.4206 21.249 11.9215 21.249 11.3838ZM22.5137 11.2402V11.3838C22.5137 11.7529 22.5501 12.0993 22.623 12.4229C22.7005 12.7464 22.8167 13.0312 22.9717 13.2773C23.1312 13.5234 23.334 13.7171 23.5801 13.8584C23.8262 13.9951 24.1201 14.0635 24.4619 14.0635C24.8812 14.0635 25.2275 13.9746 25.501 13.7969C25.7744 13.6191 25.9909 13.3844 26.1504 13.0928C26.3145 12.8011 26.4421 12.4844 26.5332 12.1426V10.4951C26.4831 10.2445 26.4056 10.0029 26.3008 9.77051C26.2005 9.53353 26.0684 9.32389 25.9043 9.1416C25.7448 8.95475 25.5465 8.80664 25.3096 8.69727C25.0726 8.58789 24.7946 8.5332 24.4756 8.5332C24.1292 8.5332 23.8307 8.60612 23.5801 8.75195C23.334 8.89323 23.1312 9.08919 22.9717 9.33984C22.8167 9.58594 22.7005 9.87305 22.623 10.2012C22.5501 10.5247 22.5137 10.8711 22.5137 11.2402ZM30.6758 8.76562V15H29.4111V7.60352H30.6416L30.6758 8.76562ZM32.9863 7.5625L32.9795 8.73828C32.8747 8.71549 32.7744 8.70182 32.6787 8.69727C32.5876 8.68815 32.4827 8.68359 32.3643 8.68359C32.0726 8.68359 31.8151 8.72917 31.5918 8.82031C31.3685 8.91146 31.1794 9.03906 31.0244 9.20312C30.8695 9.36719 30.7464 9.56315 30.6553 9.79102C30.5687 10.0143 30.5117 10.2604 30.4844 10.5293L30.1289 10.7344C30.1289 10.2878 30.1722 9.86849 30.2588 9.47656C30.3499 9.08464 30.4889 8.73828 30.6758 8.4375C30.8626 8.13216 31.0996 7.89518 31.3867 7.72656C31.6784 7.55339 32.0247 7.4668 32.4258 7.4668C32.5169 7.4668 32.6217 7.47819 32.7402 7.50098C32.8587 7.51921 32.9408 7.53971 32.9863 7.5625ZM38.2432 13.7354V9.92773C38.2432 9.63607 38.1839 9.38314 38.0654 9.16895C37.9515 8.9502 37.7783 8.78158 37.5459 8.66309C37.3135 8.5446 37.0264 8.48535 36.6846 8.48535C36.3656 8.48535 36.0853 8.54004 35.8438 8.64941C35.6068 8.75879 35.4199 8.90234 35.2832 9.08008C35.151 9.25781 35.085 9.44922 35.085 9.6543H33.8203C33.8203 9.38997 33.8887 9.12793 34.0254 8.86816C34.1621 8.6084 34.3581 8.3737 34.6133 8.16406C34.873 7.94987 35.1829 7.78125 35.543 7.6582C35.9076 7.5306 36.3132 7.4668 36.7598 7.4668C37.2975 7.4668 37.7715 7.55794 38.1816 7.74023C38.5964 7.92253 38.9199 8.19824 39.1523 8.56738C39.3893 8.93197 39.5078 9.38997 39.5078 9.94141V13.3867C39.5078 13.6328 39.5283 13.8949 39.5693 14.1729C39.6149 14.4508 39.681 14.6901 39.7676 14.8906V15H38.4482C38.3844 14.8542 38.3343 14.6605 38.2979 14.4189C38.2614 14.1729 38.2432 13.945 38.2432 13.7354ZM38.4619 10.5156L38.4756 11.4043H37.1973C36.8372 11.4043 36.516 11.4339 36.2334 11.4932C35.9508 11.5479 35.7139 11.6322 35.5225 11.7461C35.3311 11.86 35.1852 12.0036 35.085 12.1768C34.9847 12.3454 34.9346 12.5436 34.9346 12.7715C34.9346 13.0039 34.987 13.2158 35.0918 13.4072C35.1966 13.5986 35.3538 13.7513 35.5635 13.8652C35.7777 13.9746 36.0397 14.0293 36.3496 14.0293C36.737 14.0293 37.0788 13.9473 37.375 13.7832C37.6712 13.6191 37.9059 13.4186 38.0791 13.1816C38.2568 12.9447 38.3525 12.7145 38.3662 12.4912L38.9062 13.0996C38.8743 13.291 38.7878 13.5029 38.6465 13.7354C38.5052 13.9678 38.3161 14.1911 38.0791 14.4053C37.8467 14.6149 37.5687 14.7904 37.2451 14.9316C36.9261 15.0684 36.5661 15.1367 36.165 15.1367C35.6637 15.1367 35.224 15.0387 34.8457 14.8428C34.472 14.6468 34.1803 14.3848 33.9707 14.0566C33.7656 13.724 33.6631 13.3525 33.6631 12.9424C33.6631 12.5459 33.7406 12.1973 33.8955 11.8965C34.0505 11.5911 34.2738 11.3382 34.5654 11.1377C34.8571 10.9326 35.208 10.7777 35.6182 10.6729C36.0283 10.568 36.4863 10.5156 36.9922 10.5156H38.4619ZM46.1592 13.5645V4.5H47.4307V15H46.2686L46.1592 13.5645ZM41.1826 11.3838V11.2402C41.1826 10.6751 41.251 10.1624 41.3877 9.70215C41.529 9.2373 41.7272 8.83854 41.9824 8.50586C42.2422 8.17318 42.5498 7.91797 42.9053 7.74023C43.2653 7.55794 43.6663 7.4668 44.1084 7.4668C44.5732 7.4668 44.9788 7.54883 45.3252 7.71289C45.6761 7.8724 45.9723 8.1071 46.2139 8.41699C46.46 8.72233 46.6536 9.09147 46.7949 9.52441C46.9362 9.95736 47.0342 10.4473 47.0889 10.9941V11.623C47.0387 12.1654 46.9408 12.653 46.7949 13.0859C46.6536 13.5189 46.46 13.888 46.2139 14.1934C45.9723 14.4987 45.6761 14.7334 45.3252 14.8975C44.9743 15.057 44.5641 15.1367 44.0947 15.1367C43.6618 15.1367 43.2653 15.0433 42.9053 14.8564C42.5498 14.6696 42.2422 14.4076 41.9824 14.0703C41.7272 13.7331 41.529 13.3366 41.3877 12.8809C41.251 12.4206 41.1826 11.9215 41.1826 11.3838ZM42.4541 11.2402V11.3838C42.4541 11.7529 42.4906 12.0993 42.5635 12.4229C42.641 12.7464 42.7594 13.0312 42.9189 13.2773C43.0785 13.5234 43.2812 13.7171 43.5273 13.8584C43.7734 13.9951 44.0674 14.0635 44.4092 14.0635C44.8285 14.0635 45.1725 13.9746 45.4414 13.7969C45.7148 13.6191 45.9336 13.3844 46.0977 13.0928C46.2617 12.8011 46.3893 12.4844 46.4805 12.1426V10.4951C46.4258 10.2445 46.346 10.0029 46.2412 9.77051C46.141 9.53353 46.0088 9.32389 45.8447 9.1416C45.6852 8.95475 45.487 8.80664 45.25 8.69727C45.0176 8.58789 44.7419 8.5332 44.4229 8.5332C44.0765 8.5332 43.778 8.60612 43.5273 8.75195C43.2812 8.89323 43.0785 9.08919 42.9189 9.33984C42.7594 9.58594 42.641 9.87305 42.5635 10.2012C42.4906 10.5247 42.4541 10.8711 42.4541 11.2402ZM52.4688 15.1367C51.9538 15.1367 51.4867 15.0501 51.0674 14.877C50.6527 14.6992 50.2949 14.4508 49.9941 14.1318C49.6979 13.8128 49.4701 13.4346 49.3105 12.9971C49.151 12.5596 49.0713 12.0811 49.0713 11.5615V11.2744C49.0713 10.6729 49.1602 10.1374 49.3379 9.66797C49.5156 9.19401 49.7572 8.79297 50.0625 8.46484C50.3678 8.13672 50.7142 7.88835 51.1016 7.71973C51.4889 7.55111 51.89 7.4668 52.3047 7.4668C52.8333 7.4668 53.2891 7.55794 53.6719 7.74023C54.0592 7.92253 54.376 8.17773 54.6221 8.50586C54.8682 8.82943 55.0505 9.21224 55.1689 9.6543C55.2874 10.0918 55.3467 10.5703 55.3467 11.0898V11.6572H49.8232V10.625H54.082V10.5293C54.0638 10.2012 53.9954 9.88216 53.877 9.57227C53.763 9.26237 53.5807 9.00716 53.3301 8.80664C53.0794 8.60612 52.7376 8.50586 52.3047 8.50586C52.0176 8.50586 51.7533 8.56738 51.5117 8.69043C51.2702 8.80892 51.0628 8.98665 50.8896 9.22363C50.7165 9.46061 50.582 9.75 50.4863 10.0918C50.3906 10.4336 50.3428 10.8278 50.3428 11.2744V11.5615C50.3428 11.9124 50.3906 12.2428 50.4863 12.5527C50.5866 12.8581 50.7301 13.127 50.917 13.3594C51.1084 13.5918 51.3385 13.7741 51.6074 13.9062C51.8809 14.0384 52.1908 14.1045 52.5371 14.1045C52.9837 14.1045 53.362 14.0133 53.6719 13.8311C53.9818 13.6488 54.2529 13.4049 54.4854 13.0996L55.251 13.708C55.0915 13.9495 54.8887 14.1797 54.6426 14.3984C54.3965 14.6172 54.0934 14.7949 53.7334 14.9316C53.3779 15.0684 52.9564 15.1367 52.4688 15.1367Z" fill="white"/>
</svg>
