<svg xmlns="http://www.w3.org/2000/svg" enable-background="new 0 0 24 24" viewBox="0 0 24 24"><path d="M13.593,20.5h-2.681c-0.151,0-0.294-0.068-0.389-0.187c-0.095-0.117-0.131-0.271-0.1-0.419l1.553-7.172c-0.312-0.399-0.614-0.833-0.902-1.298c-0.367,2.678-2.699,4.749-5.513,4.749C2.495,16.174,0,13.713,0,10.688V4c0-0.276,0.224-0.5,0.5-0.5h2.622c0.276,0,0.5,0.224,0.5,0.5v6.688c0.001,1.043,0.872,1.894,1.939,1.896c1.068-0.002,1.939-0.853,1.94-1.896V4c0-0.276,0.224-0.5,0.5-0.5h2.622c0.222,0,0.417,0.146,0.479,0.358c0.468,1.58,1.171,3.195,1.979,4.562c0.994-2.202,2.881-3.486,5.205-3.486c3.15,0,5.712,2.519,5.712,5.614c0,3.102-2.562,5.625-5.712,5.625c-1.109,0-2.178-0.26-3.188-0.773l-1.019,4.705C14.032,20.336,13.828,20.5,13.593,20.5z M11.532,19.5h1.657l1.077-4.975c0.035-0.159,0.145-0.292,0.294-0.355c0.15-0.063,0.322-0.051,0.46,0.037c1.023,0.642,2.122,0.967,3.267,0.967c2.599,0,4.712-2.075,4.712-4.625c0-2.544-2.114-4.614-4.712-4.614c-2.182,0-3.905,1.401-4.61,3.749c-0.056,0.185-0.212,0.321-0.403,0.351c-0.192,0.029-0.381-0.054-0.49-0.214c-1.018-1.502-1.93-3.423-2.53-5.32H8.502v6.188c-0.002,1.595-1.321,2.894-2.94,2.896c-1.619-0.002-2.937-1.301-2.939-2.895V4.5H1v6.188c0,2.474,2.046,4.486,4.561,4.486c2.516,0,4.563-2.013,4.563-4.486V9.568c0-0.232,0.161-0.435,0.388-0.487c0.229-0.053,0.46,0.06,0.562,0.269c0.549,1.129,1.165,2.115,1.83,2.932c0.096,0.117,0.133,0.272,0.101,0.421L11.532,19.5z M18.288,13.589c-1.106,0-2.202-0.425-3.257-1.263c-0.149-0.118-0.218-0.312-0.178-0.497l0.218-1.011c0.39-2.113,1.561-3.312,3.217-3.312c1.704,0,3.09,1.364,3.09,3.041C21.378,12.225,19.991,13.589,18.288,13.589z M15.897,11.729c0.794,0.571,1.597,0.86,2.39,0.86c1.152,0,2.09-0.916,2.091-2.041c0-1.125-0.938-2.041-2.09-2.041c-1.466,0-2.021,1.342-2.229,2.468L15.897,11.729z"/></svg>