<svg width="174" height="175" viewBox="0 0 174 175" fill="none" xmlns="http://www.w3.org/2000/svg">
<path d="M59.2832 37.5981C51.6108 43.7546 46.8135 52.4329 46.8135 62.1771C46.8135 71.9323 51.6111 80.6106 59.2839 86.7565C64.4421 90.8935 70.9642 93.8852 78.1818 95.2315V127.644C75.0669 126.696 72.3087 125.249 70.0638 123.448L70.0634 123.448C66.3534 120.474 64.1528 116.566 64.1528 112.459C64.1528 107.654 60.274 103.756 55.4776 103.756C50.6809 103.756 46.8024 107.654 46.8024 112.459V112.895L46.8301 112.921C46.9718 122.497 51.7399 131.007 59.2973 137.061C64.4554 141.198 70.9775 144.189 78.1952 145.536V149.979C78.1952 154.784 82.0737 158.681 86.8704 158.681C91.6671 158.681 95.5455 154.784 95.5455 149.979V145.536C102.763 144.19 109.285 141.201 114.443 137.061C122.13 130.904 126.927 122.226 126.927 112.481C126.927 102.725 122.116 94.0475 114.444 87.9023C109.286 83.7651 102.763 80.7732 95.5455 79.4269V47.0029C98.6617 47.9494 101.419 49.3885 103.662 51.1975L103.664 51.1997C107.363 54.1618 109.564 58.0688 109.564 62.1771C109.564 66.9821 113.442 70.8794 118.239 70.8794C123.035 70.8794 126.914 66.9818 126.914 62.1771C126.914 52.4209 122.102 43.7429 114.43 37.5976C109.272 33.4607 102.75 30.4689 95.5321 29.1226V24.6794C95.5321 19.8744 91.6537 15.9771 86.857 15.9771C82.0603 15.9771 78.1818 19.8747 78.1818 24.6794V29.1226C70.9642 30.4686 64.4418 33.4578 59.2832 37.5981ZM59.2832 37.5981L59.903 38.3705L59.2832 37.5981ZM86.848 1.1958C134.237 1.1958 172.671 39.7483 172.671 87.326C172.671 134.891 134.249 173.456 86.848 173.456C39.4592 173.456 1.02502 134.904 1.02502 87.326C1.02502 39.7609 39.4467 1.1958 86.848 1.1958ZM70.0527 73.1529L70.0523 73.1526C66.3423 70.1786 64.1416 66.2711 64.1416 62.1636C64.1416 58.0584 66.351 54.1617 70.052 51.1862C72.2997 49.3865 75.0566 47.9382 78.1707 46.9899V77.3487C75.0558 76.4007 72.2976 74.9542 70.0527 73.1529ZM103.641 123.437C101.393 125.236 98.6368 126.684 95.5232 127.632V97.2622C98.6378 98.2101 101.396 99.6563 103.641 101.457C107.34 104.432 109.541 108.339 109.541 112.447C109.541 116.555 107.34 120.463 103.641 123.437Z" stroke="#5B3F91" stroke-opacity="0.3" stroke-width="2"/>
</svg>
