<svg width="113" height="180" viewBox="0 0 113 180" fill="none" xmlns="http://www.w3.org/2000/svg">
<path d="M105.999 72.0811L105.991 72.0815L105.983 72.0817C101.181 72.2461 96.6285 73.1175 93.2511 76.3556C89.8807 79.5871 87.4725 85.3813 87.4725 95.8917H86.4725H85.4725V37.3351C85.4725 34.1622 84.2124 31.8627 82.3773 30.3545C80.5189 28.8272 78.0152 28.0693 75.5077 28.1311V28.1312L75.4954 28.1313C73.0144 28.1619 70.6092 28.966 68.8408 30.4898C67.0933 31.9955 65.9101 34.2506 65.9101 37.3351V75.8174H64.9101H63.9101C63.9101 72.7059 62.6931 70.4361 60.9067 68.9283C59.0983 67.4019 56.6505 66.613 54.1634 66.613C51.6762 66.613 49.2285 67.4019 47.42 68.9283C45.6336 70.4361 44.4166 72.7059 44.4166 75.8174V85.1539H43.4166H42.4166C42.4166 82.0436 41.1963 79.774 39.4037 78.2658C37.5888 76.7388 35.132 75.9495 32.6354 75.9495C30.1388 75.9495 27.682 76.7388 25.8671 78.2658C24.0745 79.774 22.8542 82.0436 22.8542 85.1539V98.092H21.8542H20.8542C20.8542 94.9805 19.6372 92.7106 17.8509 91.2028C16.0424 89.6764 13.5946 88.8876 11.1075 88.8876C8.62029 88.8876 6.17254 89.6764 4.36405 91.2028C2.57765 92.7106 1.36069 94.9805 1.36069 98.092L1.36323 127.836C1.36323 155.59 25.0824 178.456 54.1991 178.456C83.2478 178.456 107.035 155.589 107.035 127.836V73.2164C107.035 72.3524 106.882 72.1519 106.864 72.1311C106.853 72.1249 106.81 72.1034 106.696 72.0878C106.537 72.0659 106.321 72.0649 105.999 72.0811ZM39.9679 36.1342C39.9679 39.3031 40.4398 42.5375 41.3154 45.5118L41.3158 45.5117C41.9836 47.7001 44.4147 49.0415 46.7769 48.4397C49.1251 47.7752 50.4236 45.4479 49.7665 43.2962C49.038 40.9193 48.749 38.6185 48.749 36.1342C48.749 21.8044 60.8523 10.2574 75.6938 10.2574C90.6028 10.2574 102.708 21.8017 102.708 36.1342C102.708 38.6347 102.345 40.9299 101.624 43.284C101.022 45.4576 102.346 47.7732 104.669 48.371L104.68 48.3737L104.69 48.3766C107.049 49.0382 109.46 47.7 110.066 45.5356L110.066 45.5356L110.068 45.528C110.948 42.4782 111.42 39.3042 111.42 36.1342C111.42 26.7507 107.439 18.1376 101.016 11.9792C94.5216 5.75237 85.587 1.91992 75.6941 1.91992C65.8004 1.91992 56.8681 5.75257 50.4451 11.9756L50.4414 11.9792C43.9471 18.2061 39.9679 26.7541 39.9679 36.1342Z" stroke="#5B3F91" stroke-opacity="0.3" stroke-width="2"/>
</svg>
